ISO-10303-21;
HEADER;
/* Generated by software containing ST-Developer
 * from STEP Tools, Inc. (www.steptools.com) 
 */
/* OPTION: using custom renumber hook */
/* OPTION: strings as raw bytes, not using required /X/ escapes */

FILE_DESCRIPTION(
/* description */ ('Unknown'),
/* implementation_level */ '2;1');

FILE_NAME(
/* name */ 'SEG-P-024-00',
/* time_stamp */ '2026-08-09T14:16:49+02:00',
/* author */ ('Unknown'),
/* organization */ ('Unknown'),
/* preprocessor_version */ 'ST-DEVELOPER v20',
/* originating_system */ 'Solid Edge',
/* authorisation */ 'Unknown');

FILE_SCHEMA (('AUTOMOTIVE_DESIGN {1 0 10303 214 3 1 1}'));
ENDSEC;

DATA;
#10=PROPERTY_DEFINITION_REPRESENTATION(#14,#12);
#11=PROPERTY_DEFINITION_REPRESENTATION(#15,#13);
#12=REPRESENTATION('',(#16),#655);
#13=REPRESENTATION('',(#17),#655);
#14=PROPERTY_DEFINITION('pmi validation property','',#660);
#15=PROPERTY_DEFINITION('pmi validation property','',#660);
#16=VALUE_REPRESENTATION_ITEM('number of annotations',COUNT_MEASURE(0.));
#17=VALUE_REPRESENTATION_ITEM('number of views',COUNT_MEASURE(0.));
#18=SHAPE_REPRESENTATION_RELATIONSHIP('','',#389,#19);
#19=ADVANCED_BREP_SHAPE_REPRESENTATION('',(#387),#655);
#20=CONICAL_SURFACE('',#431,3.47,0.785398163397448);
#21=CONICAL_SURFACE('',#434,3.47,0.785398163397448);
#22=SPHERICAL_SURFACE('',#399,2.);
#23=SPHERICAL_SURFACE('',#402,2.);
#24=CIRCLE('',#395,2.);
#25=CIRCLE('',#398,2.);
#26=CIRCLE('',#400,2.);
#27=CIRCLE('',#401,2.);
#28=CIRCLE('',#403,2.);
#29=CIRCLE('',#404,2.);
#30=CIRCLE('',#408,2.);
#31=CIRCLE('',#410,2.);
#32=CIRCLE('',#412,2.);
#33=CIRCLE('',#417,1.8);
#34=CIRCLE('',#418,1.8);
#35=CIRCLE('',#419,2.);
#36=CIRCLE('',#420,2.);
#37=CIRCLE('',#423,3.47);
#38=CIRCLE('',#424,3.47);
#39=CIRCLE('',#425,2.);
#40=CIRCLE('',#426,2.);
#41=CIRCLE('',#430,1.8);
#42=CIRCLE('',#433,1.8);
#43=CYLINDRICAL_SURFACE('',#393,2.);
#44=CYLINDRICAL_SURFACE('',#396,2.);
#45=CYLINDRICAL_SURFACE('',#406,2.);
#46=CYLINDRICAL_SURFACE('',#407,2.);
#47=CYLINDRICAL_SURFACE('',#409,2.);
#48=CYLINDRICAL_SURFACE('',#411,2.);
#49=CYLINDRICAL_SURFACE('',#427,2.);
#50=CYLINDRICAL_SURFACE('',#428,2.);
#51=CYLINDRICAL_SURFACE('',#429,1.8);
#52=CYLINDRICAL_SURFACE('',#432,1.8);
#53=ELLIPSE('',#392,2.03085322377149,2.);
#54=ELLIPSE('',#394,2.03085322377149,2.);
#55=ELLIPSE('',#397,2.03085322377149,2.);
#56=ORIENTED_EDGE('',*,*,#152,.T.);
#57=ORIENTED_EDGE('',*,*,#153,.T.);
#58=ORIENTED_EDGE('',*,*,#154,.T.);
#59=ORIENTED_EDGE('',*,*,#155,.F.);
#60=ORIENTED_EDGE('',*,*,#156,.T.);
#61=ORIENTED_EDGE('',*,*,#157,.T.);
#62=ORIENTED_EDGE('',*,*,#158,.F.);
#63=ORIENTED_EDGE('',*,*,#159,.T.);
#64=ORIENTED_EDGE('',*,*,#152,.F.);
#65=ORIENTED_EDGE('',*,*,#160,.F.);
#66=ORIENTED_EDGE('',*,*,#154,.F.);
#67=ORIENTED_EDGE('',*,*,#161,.T.);
#68=ORIENTED_EDGE('',*,*,#162,.F.);
#69=ORIENTED_EDGE('',*,*,#163,.T.);
#70=ORIENTED_EDGE('',*,*,#156,.F.);
#71=ORIENTED_EDGE('',*,*,#164,.F.);
#72=ORIENTED_EDGE('',*,*,#165,.T.);
#73=ORIENTED_EDGE('',*,*,#163,.F.);
#74=ORIENTED_EDGE('',*,*,#166,.F.);
#75=ORIENTED_EDGE('',*,*,#160,.T.);
#76=ORIENTED_EDGE('',*,*,#167,.F.);
#77=ORIENTED_EDGE('',*,*,#168,.T.);
#78=ORIENTED_EDGE('',*,*,#169,.T.);
#79=ORIENTED_EDGE('',*,*,#170,.T.);
#80=ORIENTED_EDGE('',*,*,#171,.T.);
#81=ORIENTED_EDGE('',*,*,#165,.F.);
#82=ORIENTED_EDGE('',*,*,#169,.F.);
#83=ORIENTED_EDGE('',*,*,#167,.T.);
#84=ORIENTED_EDGE('',*,*,#157,.F.);
#85=ORIENTED_EDGE('',*,*,#155,.T.);
#86=ORIENTED_EDGE('',*,*,#172,.F.);
#87=ORIENTED_EDGE('',*,*,#173,.F.);
#88=ORIENTED_EDGE('',*,*,#166,.T.);
#89=ORIENTED_EDGE('',*,*,#168,.F.);
#90=ORIENTED_EDGE('',*,*,#174,.F.);
#91=ORIENTED_EDGE('',*,*,#170,.F.);
#92=ORIENTED_EDGE('',*,*,#164,.T.);
#93=ORIENTED_EDGE('',*,*,#175,.F.);
#94=ORIENTED_EDGE('',*,*,#176,.F.);
#95=ORIENTED_EDGE('',*,*,#177,.F.);
#96=ORIENTED_EDGE('',*,*,#178,.T.);
#97=ORIENTED_EDGE('',*,*,#179,.T.);
#98=ORIENTED_EDGE('',*,*,#158,.T.);
#99=ORIENTED_EDGE('',*,*,#173,.T.);
#100=ORIENTED_EDGE('',*,*,#180,.T.);
#101=ORIENTED_EDGE('',*,*,#181,.T.);
#102=ORIENTED_EDGE('',*,*,#182,.T.);
#103=ORIENTED_EDGE('',*,*,#183,.F.);
#104=ORIENTED_EDGE('',*,*,#184,.F.);
#105=ORIENTED_EDGE('',*,*,#175,.T.);
#106=ORIENTED_EDGE('',*,*,#162,.T.);
#107=ORIENTED_EDGE('',*,*,#185,.T.);
#108=ORIENTED_EDGE('',*,*,#180,.F.);
#109=ORIENTED_EDGE('',*,*,#174,.T.);
#110=ORIENTED_EDGE('',*,*,#171,.F.);
#111=ORIENTED_EDGE('',*,*,#176,.T.);
#112=ORIENTED_EDGE('',*,*,#184,.T.);
#113=ORIENTED_EDGE('',*,*,#172,.T.);
#114=ORIENTED_EDGE('',*,*,#186,.T.);
#115=ORIENTED_EDGE('',*,*,#187,.T.);
#116=ORIENTED_EDGE('',*,*,#188,.T.);
#117=ORIENTED_EDGE('',*,*,#189,.T.);
#118=ORIENTED_EDGE('',*,*,#177,.T.);
#119=ORIENTED_EDGE('',*,*,#185,.F.);
#120=ORIENTED_EDGE('',*,*,#183,.T.);
#121=ORIENTED_EDGE('',*,*,#190,.T.);
#122=ORIENTED_EDGE('',*,*,#191,.T.);
#123=ORIENTED_EDGE('',*,*,#192,.T.);
#124=ORIENTED_EDGE('',*,*,#188,.F.);
#125=ORIENTED_EDGE('',*,*,#193,.T.);
#126=ORIENTED_EDGE('',*,*,#194,.T.);
#127=ORIENTED_EDGE('',*,*,#195,.T.);
#128=ORIENTED_EDGE('',*,*,#179,.F.);
#129=ORIENTED_EDGE('',*,*,#196,.T.);
#130=ORIENTED_EDGE('',*,*,#191,.F.);
#131=ORIENTED_EDGE('',*,*,#197,.T.);
#132=ORIENTED_EDGE('',*,*,#181,.F.);
#133=ORIENTED_EDGE('',*,*,#161,.F.);
#134=ORIENTED_EDGE('',*,*,#153,.F.);
#135=ORIENTED_EDGE('',*,*,#159,.F.);
#136=ORIENTED_EDGE('',*,*,#196,.F.);
#137=ORIENTED_EDGE('',*,*,#178,.F.);
#138=ORIENTED_EDGE('',*,*,#189,.F.);
#139=ORIENTED_EDGE('',*,*,#192,.F.);
#140=ORIENTED_EDGE('',*,*,#197,.F.);
#141=ORIENTED_EDGE('',*,*,#193,.F.);
#142=ORIENTED_EDGE('',*,*,#190,.F.);
#143=ORIENTED_EDGE('',*,*,#182,.F.);
#144=ORIENTED_EDGE('',*,*,#187,.F.);
#145=ORIENTED_EDGE('',*,*,#198,.T.);
#146=ORIENTED_EDGE('',*,*,#195,.F.);
#147=ORIENTED_EDGE('',*,*,#198,.F.);
#148=ORIENTED_EDGE('',*,*,#186,.F.);
#149=ORIENTED_EDGE('',*,*,#199,.T.);
#150=ORIENTED_EDGE('',*,*,#194,.F.);
#151=ORIENTED_EDGE('',*,*,#199,.F.);
#152=EDGE_CURVE('',#200,#201,#232,.F.);
#153=EDGE_CURVE('',#201,#202,#233,.T.);
#154=EDGE_CURVE('',#202,#203,#234,.T.);
#155=EDGE_CURVE('',#203,#203,#53,.T.);
#156=EDGE_CURVE('',#203,#204,#235,.T.);
#157=EDGE_CURVE('',#204,#200,#236,.F.);
#158=EDGE_CURVE('',#205,#206,#237,.T.);
#159=EDGE_CURVE('',#205,#201,#54,.F.);
#160=EDGE_CURVE('',#206,#200,#24,.T.);
#161=EDGE_CURVE('',#202,#207,#55,.F.);
#162=EDGE_CURVE('',#208,#207,#238,.F.);
#163=EDGE_CURVE('',#208,#204,#25,.T.);
#164=EDGE_CURVE('',#209,#208,#26,.T.);
#165=EDGE_CURVE('',#209,#204,#27,.T.);
#166=EDGE_CURVE('',#206,#210,#28,.F.);
#167=EDGE_CURVE('',#210,#200,#29,.T.);
#168=EDGE_CURVE('',#211,#210,#239,.T.);
#169=EDGE_CURVE('',#210,#209,#240,.T.);
#170=EDGE_CURVE('',#209,#212,#241,.T.);
#171=EDGE_CURVE('',#212,#211,#242,.T.);
#172=EDGE_CURVE('',#213,#213,#30,.T.);
#173=EDGE_CURVE('',#206,#214,#243,.F.);
#174=EDGE_CURVE('',#214,#211,#31,.F.);
#175=EDGE_CURVE('',#215,#208,#244,.F.);
#176=EDGE_CURVE('',#212,#215,#32,.F.);
#177=EDGE_CURVE('',#216,#217,#245,.T.);
#178=EDGE_CURVE('',#216,#218,#246,.F.);
#179=EDGE_CURVE('',#218,#205,#247,.T.);
#180=EDGE_CURVE('',#214,#217,#248,.T.);
#181=EDGE_CURVE('',#207,#219,#249,.T.);
#182=EDGE_CURVE('',#219,#220,#250,.T.);
#183=EDGE_CURVE('',#221,#220,#251,.T.);
#184=EDGE_CURVE('',#215,#221,#252,.T.);
#185=EDGE_CURVE('',#221,#217,#253,.T.);
#186=EDGE_CURVE('',#222,#222,#33,.T.);
#187=EDGE_CURVE('',#223,#223,#34,.T.);
#188=EDGE_CURVE('',#224,#225,#254,.T.);
#189=EDGE_CURVE('',#225,#216,#35,.F.);
#190=EDGE_CURVE('',#220,#224,#36,.F.);
#191=EDGE_CURVE('',#226,#227,#255,.T.);
#192=EDGE_CURVE('',#227,#225,#256,.T.);
#193=EDGE_CURVE('',#224,#226,#257,.F.);
#194=EDGE_CURVE('',#228,#228,#37,.T.);
#195=EDGE_CURVE('',#229,#229,#38,.T.);
#196=EDGE_CURVE('',#218,#227,#39,.F.);
#197=EDGE_CURVE('',#226,#219,#40,.F.);
#198=EDGE_CURVE('',#230,#230,#41,.T.);
#199=EDGE_CURVE('',#231,#231,#42,.T.);
#200=VERTEX_POINT('',#554);
#201=VERTEX_POINT('',#555);
#202=VERTEX_POINT('',#557);
#203=VERTEX_POINT('',#559);
#204=VERTEX_POINT('',#562);
#205=VERTEX_POINT('',#566);
#206=VERTEX_POINT('',#567);
#207=VERTEX_POINT('',#572);
#208=VERTEX_POINT('',#574);
#209=VERTEX_POINT('',#578);
#210=VERTEX_POINT('',#582);
#211=VERTEX_POINT('',#586);
#212=VERTEX_POINT('',#589);
#213=VERTEX_POINT('',#594);
#214=VERTEX_POINT('',#597);
#215=VERTEX_POINT('',#601);
#216=VERTEX_POINT('',#605);
#217=VERTEX_POINT('',#606);
#218=VERTEX_POINT('',#608);
#219=VERTEX_POINT('',#613);
#220=VERTEX_POINT('',#615);
#221=VERTEX_POINT('',#617);
#222=VERTEX_POINT('',#623);
#223=VERTEX_POINT('',#625);
#224=VERTEX_POINT('',#627);
#225=VERTEX_POINT('',#628);
#226=VERTEX_POINT('',#633);
#227=VERTEX_POINT('',#634);
#228=VERTEX_POINT('',#639);
#229=VERTEX_POINT('',#641);
#230=VERTEX_POINT('',#648);
#231=VERTEX_POINT('',#652);
#232=LINE('',#553,#258);
#233=LINE('',#556,#259);
#234=LINE('',#558,#260);
#235=LINE('',#561,#261);
#236=LINE('',#563,#262);
#237=LINE('',#565,#263);
#238=LINE('',#573,#264);
#239=LINE('',#585,#265);
#240=LINE('',#587,#266);
#241=LINE('',#588,#267);
#242=LINE('',#590,#268);
#243=LINE('',#596,#269);
#244=LINE('',#600,#270);
#245=LINE('',#604,#271);
#246=LINE('',#607,#272);
#247=LINE('',#609,#273);
#248=LINE('',#610,#274);
#249=LINE('',#612,#275);
#250=LINE('',#614,#276);
#251=LINE('',#616,#277);
#252=LINE('',#618,#278);
#253=LINE('',#620,#279);
#254=LINE('',#626,#280);
#255=LINE('',#632,#281);
#256=LINE('',#635,#282);
#257=LINE('',#636,#283);
#258=VECTOR('',#439,1000.);
#259=VECTOR('',#440,1000.);
#260=VECTOR('',#441,1000.);
#261=VECTOR('',#444,1000.);
#262=VECTOR('',#445,1000.);
#263=VECTOR('',#448,1000.);
#264=VECTOR('',#457,1000.);
#265=VECTOR('',#474,1000.);
#266=VECTOR('',#475,1000.);
#267=VECTOR('',#476,1000.);
#268=VECTOR('',#477,1000.);
#269=VECTOR('',#486,1000.);
#270=VECTOR('',#491,1000.);
#271=VECTOR('',#496,1000.);
#272=VECTOR('',#497,1000.);
#273=VECTOR('',#498,1000.);
#274=VECTOR('',#499,1000.);
#275=VECTOR('',#502,1000.);
#276=VECTOR('',#503,1000.);
#277=VECTOR('',#504,1000.);
#278=VECTOR('',#505,1000.);
#279=VECTOR('',#508,1000.);
#280=VECTOR('',#515,1000.);
#281=VECTOR('',#522,1000.);
#282=VECTOR('',#523,1000.);
#283=VECTOR('',#524,1000.);
#284=EDGE_LOOP('',(#56,#57,#58,#59,#60,#61));
#285=EDGE_LOOP('',(#62,#63,#64,#65));
#286=EDGE_LOOP('',(#66,#67,#68,#69,#70));
#287=EDGE_LOOP('',(#71,#72,#73));
#288=EDGE_LOOP('',(#74,#75,#76));
#289=EDGE_LOOP('',(#77,#78,#79,#80));
#290=EDGE_LOOP('',(#81,#82,#83,#84));
#291=EDGE_LOOP('',(#85));
#292=EDGE_LOOP('',(#86));
#293=EDGE_LOOP('',(#87,#88,#89,#90));
#294=EDGE_LOOP('',(#91,#92,#93,#94));
#295=EDGE_LOOP('',(#95,#96,#97,#98,#99,#100));
#296=EDGE_LOOP('',(#101,#102,#103,#104,#105,#106));
#297=EDGE_LOOP('',(#107,#108,#109,#110,#111,#112));
#298=EDGE_LOOP('',(#113));
#299=EDGE_LOOP('',(#114));
#300=EDGE_LOOP('',(#115));
#301=EDGE_LOOP('',(#116,#117,#118,#119,#120,#121));
#302=EDGE_LOOP('',(#122,#123,#124,#125));
#303=EDGE_LOOP('',(#126));
#304=EDGE_LOOP('',(#127));
#305=EDGE_LOOP('',(#128,#129,#130,#131,#132,#133,#134,#135));
#306=EDGE_LOOP('',(#136,#137,#138,#139));
#307=EDGE_LOOP('',(#140,#141,#142,#143));
#308=EDGE_LOOP('',(#144));
#309=EDGE_LOOP('',(#145));
#310=EDGE_LOOP('',(#146));
#311=EDGE_LOOP('',(#147));
#312=EDGE_LOOP('',(#148));
#313=EDGE_LOOP('',(#149));
#314=EDGE_LOOP('',(#150));
#315=EDGE_LOOP('',(#151));
#316=FACE_BOUND('',#284,.T.);
#317=FACE_BOUND('',#285,.T.);
#318=FACE_BOUND('',#286,.T.);
#319=FACE_BOUND('',#287,.T.);
#320=FACE_BOUND('',#288,.T.);
#321=FACE_BOUND('',#289,.T.);
#322=FACE_BOUND('',#290,.T.);
#323=FACE_BOUND('',#291,.T.);
#324=FACE_BOUND('',#292,.T.);
#325=FACE_BOUND('',#293,.T.);
#326=FACE_BOUND('',#294,.T.);
#327=FACE_BOUND('',#295,.T.);
#328=FACE_BOUND('',#296,.T.);
#329=FACE_BOUND('',#297,.T.);
#330=FACE_BOUND('',#298,.T.);
#331=FACE_BOUND('',#299,.T.);
#332=FACE_BOUND('',#300,.T.);
#333=FACE_BOUND('',#301,.T.);
#334=FACE_BOUND('',#302,.T.);
#335=FACE_BOUND('',#303,.T.);
#336=FACE_BOUND('',#304,.T.);
#337=FACE_BOUND('',#305,.T.);
#338=FACE_BOUND('',#306,.T.);
#339=FACE_BOUND('',#307,.T.);
#340=FACE_BOUND('',#308,.T.);
#341=FACE_BOUND('',#309,.T.);
#342=FACE_BOUND('',#310,.T.);
#343=FACE_BOUND('',#311,.T.);
#344=FACE_BOUND('',#312,.T.);
#345=FACE_BOUND('',#313,.T.);
#346=FACE_BOUND('',#314,.T.);
#347=FACE_BOUND('',#315,.T.);
#348=PLANE('',#391);
#349=PLANE('',#405);
#350=PLANE('',#413);
#351=PLANE('',#414);
#352=PLANE('',#415);
#353=PLANE('',#416);
#354=PLANE('',#421);
#355=PLANE('',#422);
#356=ADVANCED_FACE('',(#316),#348,.T.);
#357=ADVANCED_FACE('',(#317),#43,.T.);
#358=ADVANCED_FACE('',(#318),#44,.T.);
#359=ADVANCED_FACE('',(#319),#22,.T.);
#360=ADVANCED_FACE('',(#320),#23,.T.);
#361=ADVANCED_FACE('',(#321),#349,.T.);
#362=ADVANCED_FACE('',(#322),#45,.T.);
#363=ADVANCED_FACE('',(#323,#324),#46,.F.);
#364=ADVANCED_FACE('',(#325),#47,.T.);
#365=ADVANCED_FACE('',(#326),#48,.T.);
#366=ADVANCED_FACE('',(#327),#350,.T.);
#367=ADVANCED_FACE('',(#328),#351,.T.);
#368=ADVANCED_FACE('',(#329,#330),#352,.F.);
#369=ADVANCED_FACE('',(#331,#332,#333),#353,.F.);
#370=ADVANCED_FACE('',(#334),#354,.T.);
#371=ADVANCED_FACE('',(#335,#336,#337),#355,.F.);
#372=ADVANCED_FACE('',(#338),#49,.T.);
#373=ADVANCED_FACE('',(#339),#50,.T.);
#374=ADVANCED_FACE('',(#340,#341),#51,.F.);
#375=ADVANCED_FACE('',(#342,#343),#20,.F.);
#376=ADVANCED_FACE('',(#344,#345),#52,.F.);
#377=ADVANCED_FACE('',(#346,#347),#21,.F.);
#378=CLOSED_SHELL('',(#356,#357,#358,#359,#360,#361,#362,#363,#364,#365,
#366,#367,#368,#369,#370,#371,#372,#373,#374,#375,#376,#377));
#379=STYLED_ITEM('',(#380),#387);
#380=PRESENTATION_STYLE_ASSIGNMENT((#381));
#381=SURFACE_STYLE_USAGE(.BOTH.,#382);
#382=SURFACE_SIDE_STYLE('',(#383));
#383=SURFACE_STYLE_FILL_AREA(#384);
#384=FILL_AREA_STYLE('',(#385));
#385=FILL_AREA_STYLE_COLOUR('',#386);
#386=COLOUR_RGB('',0.5,0.5,0.5);
#387=MANIFOLD_SOLID_BREP('',#378);
#388=SHAPE_DEFINITION_REPRESENTATION(#660,#389);
#389=SHAPE_REPRESENTATION('SEG-P-024-00',(#390),#655);
#390=AXIS2_PLACEMENT_3D('',#551,#435,#436);
#391=AXIS2_PLACEMENT_3D('',#552,#437,#438);
#392=AXIS2_PLACEMENT_3D('',#560,#442,#443);
#393=AXIS2_PLACEMENT_3D('',#564,#446,#447);
#394=AXIS2_PLACEMENT_3D('',#568,#449,#450);
#395=AXIS2_PLACEMENT_3D('',#569,#451,#452);
#396=AXIS2_PLACEMENT_3D('',#570,#453,#454);
#397=AXIS2_PLACEMENT_3D('',#571,#455,#456);
#398=AXIS2_PLACEMENT_3D('',#575,#458,#459);
#399=AXIS2_PLACEMENT_3D('',#576,#460,#461);
#400=AXIS2_PLACEMENT_3D('',#577,#462,#463);
#401=AXIS2_PLACEMENT_3D('',#579,#464,#465);
#402=AXIS2_PLACEMENT_3D('',#580,#466,#467);
#403=AXIS2_PLACEMENT_3D('',#581,#468,#469);
#404=AXIS2_PLACEMENT_3D('',#583,#470,#471);
#405=AXIS2_PLACEMENT_3D('',#584,#472,#473);
#406=AXIS2_PLACEMENT_3D('',#591,#478,#479);
#407=AXIS2_PLACEMENT_3D('',#592,#480,#481);
#408=AXIS2_PLACEMENT_3D('',#593,#482,#483);
#409=AXIS2_PLACEMENT_3D('',#595,#484,#485);
#410=AXIS2_PLACEMENT_3D('',#598,#487,#488);
#411=AXIS2_PLACEMENT_3D('',#599,#489,#490);
#412=AXIS2_PLACEMENT_3D('',#602,#492,#493);
#413=AXIS2_PLACEMENT_3D('',#603,#494,#495);
#414=AXIS2_PLACEMENT_3D('',#611,#500,#501);
#415=AXIS2_PLACEMENT_3D('',#619,#506,#507);
#416=AXIS2_PLACEMENT_3D('',#621,#509,#510);
#417=AXIS2_PLACEMENT_3D('',#622,#511,#512);
#418=AXIS2_PLACEMENT_3D('',#624,#513,#514);
#419=AXIS2_PLACEMENT_3D('',#629,#516,#517);
#420=AXIS2_PLACEMENT_3D('',#630,#518,#519);
#421=AXIS2_PLACEMENT_3D('',#631,#520,#521);
#422=AXIS2_PLACEMENT_3D('',#637,#525,#526);
#423=AXIS2_PLACEMENT_3D('',#638,#527,#528);
#424=AXIS2_PLACEMENT_3D('',#640,#529,#530);
#425=AXIS2_PLACEMENT_3D('',#642,#531,#532);
#426=AXIS2_PLACEMENT_3D('',#643,#533,#534);
#427=AXIS2_PLACEMENT_3D('',#644,#535,#536);
#428=AXIS2_PLACEMENT_3D('',#645,#537,#538);
#429=AXIS2_PLACEMENT_3D('',#646,#539,#540);
#430=AXIS2_PLACEMENT_3D('',#647,#541,#542);
#431=AXIS2_PLACEMENT_3D('',#649,#543,#544);
#432=AXIS2_PLACEMENT_3D('',#650,#545,#546);
#433=AXIS2_PLACEMENT_3D('',#651,#547,#548);
#434=AXIS2_PLACEMENT_3D('',#653,#549,#550);
#435=DIRECTION('',(0.,0.,1.));
#436=DIRECTION('',(1.,0.,0.));
#437=DIRECTION('',(0.984807753012208,-0.17364817766693,0.));
#438=DIRECTION('',(-0.17364817766693,-0.984807753012208,0.));
#439=DIRECTION('',(-0.17364817766693,-0.984807753012208,9.03694711078246E-16));
#440=DIRECTION('',(0.,0.,1.));
#441=DIRECTION('',(-0.17364817766693,-0.984807753012208,0.));
#442=DIRECTION('',(0.984807753012208,-0.17364817766693,0.));
#443=DIRECTION('',(-0.17364817766693,-0.984807753012208,0.));
#444=DIRECTION('',(-0.17364817766693,-0.984807753012208,0.));
#445=DIRECTION('',(0.,0.,1.));
#446=DIRECTION('',(-0.17364817766693,-0.984807753012208,9.03694711078246E-16));
#447=DIRECTION('',(0.984807753012208,-0.17364817766693,0.));
#448=DIRECTION('',(-0.17364817766693,-0.984807753012208,9.03694711078246E-16));
#449=DIRECTION('',(0.,1.,0.));
#450=DIRECTION('',(-1.,0.,5.20417042793042E-15));
#451=DIRECTION('',(-0.173648177666927,-0.984807753012209,1.20492628143764E-15));
#452=DIRECTION('',(0.984807753012209,-0.173648177666927,0.));
#453=DIRECTION('',(-0.17364817766693,-0.984807753012208,0.));
#454=DIRECTION('',(0.984807753012208,-0.17364817766693,0.));
#455=DIRECTION('',(0.,1.,0.));
#456=DIRECTION('',(-1.,0.,0.));
#457=DIRECTION('',(-0.17364817766693,-0.984807753012208,0.));
#458=DIRECTION('',(0.17364817766693,0.984807753012208,5.12510738542273E-15));
#459=DIRECTION('',(-0.984807753012208,0.17364817766693,0.));
#460=DIRECTION('',(0.984807753012208,-0.17364817766693,0.));
#461=DIRECTION('',(0.17364817766693,0.984807753012208,0.));
#462=DIRECTION('',(-1.,0.,0.));
#463=DIRECTION('',(0.,0.,1.));
#464=DIRECTION('',(0.,0.,1.));
#465=DIRECTION('',(1.,0.,0.));
#466=DIRECTION('',(0.984807753012208,-0.17364817766693,0.));
#467=DIRECTION('',(0.17364817766693,0.984807753012208,0.));
#468=DIRECTION('',(1.,0.,-5.20417042793042E-15));
#469=DIRECTION('',(-5.20417042793042E-15,0.,-1.));
#470=DIRECTION('',(0.,0.,1.));
#471=DIRECTION('',(1.,0.,0.));
#472=DIRECTION('',(0.,-1.,0.));
#473=DIRECTION('',(0.,0.,-1.));
#474=DIRECTION('',(1.,0.,-5.20417042793042E-15));
#475=DIRECTION('',(0.,0.,1.));
#476=DIRECTION('',(-1.,0.,0.));
#477=DIRECTION('',(0.,0.,-1.));
#478=DIRECTION('',(0.,0.,1.));
#479=DIRECTION('',(1.,0.,0.));
#480=DIRECTION('',(-1.,0.,0.));
#481=DIRECTION('',(0.,0.,-1.));
#482=DIRECTION('',(1.,0.,0.));
#483=DIRECTION('',(0.,0.,-1.));
#484=DIRECTION('',(1.,0.,-5.20417042793042E-15));
#485=DIRECTION('',(-5.20417042793042E-15,0.,-1.));
#486=DIRECTION('',(1.,0.,-5.20417042793042E-15));
#487=DIRECTION('',(1.,0.,0.));
#488=DIRECTION('',(0.,0.,-1.));
#489=DIRECTION('',(-1.,0.,0.));
#490=DIRECTION('',(0.,0.,1.));
#491=DIRECTION('',(-1.,0.,0.));
#492=DIRECTION('',(1.,0.,0.));
#493=DIRECTION('',(0.,0.,-1.));
#494=DIRECTION('',(-5.20417042793042E-15,0.,-1.));
#495=DIRECTION('',(-1.,0.,5.20417042793042E-15));
#496=DIRECTION('',(-1.,0.,5.20417042793042E-15));
#497=DIRECTION('',(0.,1.,0.));
#498=DIRECTION('',(-1.,0.,3.88578058618805E-15));
#499=DIRECTION('',(0.,1.,0.));
#500=DIRECTION('',(0.,0.,1.));
#501=DIRECTION('',(1.,0.,0.));
#502=DIRECTION('',(1.,0.,0.));
#503=DIRECTION('',(0.,1.,0.));
#504=DIRECTION('',(1.,0.,0.));
#505=DIRECTION('',(0.,1.,0.));
#506=DIRECTION('',(1.,0.,0.));
#507=DIRECTION('',(0.,0.,-1.));
#508=DIRECTION('',(0.,0.,-1.));
#509=DIRECTION('',(0.,-1.,0.));
#510=DIRECTION('',(0.,0.,-1.));
#511=DIRECTION('',(0.,-1.,0.));
#512=DIRECTION('',(0.,0.,-1.));
#513=DIRECTION('',(0.,-1.,0.));
#514=DIRECTION('',(0.,0.,-1.));
#515=DIRECTION('',(0.,0.,-1.));
#516=DIRECTION('',(0.,-1.,0.));
#517=DIRECTION('',(0.,0.,-1.));
#518=DIRECTION('',(0.,-1.,0.));
#519=DIRECTION('',(0.,0.,-1.));
#520=DIRECTION('',(1.,0.,0.));
#521=DIRECTION('',(0.,0.,-1.));
#522=DIRECTION('',(0.,0.,-1.));
#523=DIRECTION('',(0.,1.,0.));
#524=DIRECTION('',(0.,1.,0.));
#525=DIRECTION('',(0.,1.,0.));
#526=DIRECTION('',(0.,0.,1.));
#527=DIRECTION('',(0.,1.,0.));
#528=DIRECTION('',(0.,0.,1.));
#529=DIRECTION('',(0.,1.,0.));
#530=DIRECTION('',(0.,0.,1.));
#531=DIRECTION('',(0.,1.,0.));
#532=DIRECTION('',(0.,0.,1.));
#533=DIRECTION('',(0.,1.,0.));
#534=DIRECTION('',(0.,0.,1.));
#535=DIRECTION('',(0.,1.,0.));
#536=DIRECTION('',(0.,0.,1.));
#537=DIRECTION('',(0.,1.,0.));
#538=DIRECTION('',(0.,0.,1.));
#539=DIRECTION('',(0.,-1.,0.));
#540=DIRECTION('',(0.,0.,-1.));
#541=DIRECTION('',(0.,-1.,0.));
#542=DIRECTION('',(0.,0.,1.));
#543=DIRECTION('',(0.,-1.,0.));
#544=DIRECTION('',(0.,0.,1.));
#545=DIRECTION('',(0.,-1.,0.));
#546=DIRECTION('',(0.,0.,-1.));
#547=DIRECTION('',(0.,-1.,0.));
#548=DIRECTION('',(0.,0.,1.));
#549=DIRECTION('',(0.,-1.,0.));
#550=DIRECTION('',(0.,0.,1.));
#551=CARTESIAN_POINT('',(0.,0.,0.));
#552=CARTESIAN_POINT('',(-79.,0.,-1.04083408558608E-14));
#553=CARTESIAN_POINT('',(-79.,6.05176579321669E-14,67.9999999999999));
#554=CARTESIAN_POINT('',(-80.8245075248317,-10.3472963553339,67.9999999999999));
#555=CARTESIAN_POINT('',(-79.5289809421254,-3.,67.9999999999999));
#556=CARTESIAN_POINT('',(-79.5289809421254,-3.,-1.04083408558608E-14));
#557=CARTESIAN_POINT('',(-79.5289809421254,-3.,73.));
#558=CARTESIAN_POINT('',(-79.,0.,73.));
#559=CARTESIAN_POINT('',(-80.4106158456677,-8.00000000000012,73.));
#560=CARTESIAN_POINT('',(-80.4106158456677,-8.00000000000012,71.));
#561=CARTESIAN_POINT('',(-79.,0.,73.));
#562=CARTESIAN_POINT('',(-80.8245075248317,-10.3472963553339,73.));
#563=CARTESIAN_POINT('',(-80.8245075248317,-10.3472963553339,-1.04083408558608E-14));
#564=CARTESIAN_POINT('',(-36.295382574131,253.707461387348,67.9999999999997));
#565=CARTESIAN_POINT('',(-36.295382574131,253.707461387348,65.9999999999997));
#566=CARTESIAN_POINT('',(-81.5598341658969,-3.,65.9999999999999));
#567=CARTESIAN_POINT('',(-82.7941230308561,-10.,65.9999999999999));
#568=CARTESIAN_POINT('',(-81.5598341658969,-3.,67.9999999999999));
#569=CARTESIAN_POINT('',(-82.7941230308561,-10.,67.9999999999999));
#570=CARTESIAN_POINT('',(-80.9696155060244,0.347296355333861,73.));
#571=CARTESIAN_POINT('',(-81.5598341658969,-3.,73.));
#572=CARTESIAN_POINT('',(-81.5598341658969,-3.,75.));
#573=CARTESIAN_POINT('',(-36.0541530572746,255.07554196065,75.));
#574=CARTESIAN_POINT('',(-82.7941230308561,-10.,75.));
#575=CARTESIAN_POINT('',(-82.7941230308561,-10.,73.));
#576=CARTESIAN_POINT('',(-82.7941230308561,-10.,73.));
#577=CARTESIAN_POINT('',(-82.7941230308561,-10.,73.));
#578=CARTESIAN_POINT('',(-82.7941230308561,-12.,73.));
#579=CARTESIAN_POINT('',(-82.7941230308561,-10.,73.));
#580=CARTESIAN_POINT('',(-82.7941230308561,-10.,67.9999999999999));
#581=CARTESIAN_POINT('',(-82.7941230308561,-10.,67.9999999999999));
#582=CARTESIAN_POINT('',(-82.7941230308561,-12.,67.9999999999999));
#583=CARTESIAN_POINT('',(-82.7941230308561,-10.,67.9999999999999));
#584=CARTESIAN_POINT('',(0.,-12.,0.));
#585=CARTESIAN_POINT('',(3.53883589099266E-13,-12.,67.9999999999995));
#586=CARTESIAN_POINT('',(-87.,-12.,67.9999999999999));
#587=CARTESIAN_POINT('',(-82.7941230308561,-12.,0.));
#588=CARTESIAN_POINT('',(0.,-12.,73.));
#589=CARTESIAN_POINT('',(-87.,-12.,73.));
#590=CARTESIAN_POINT('',(-87.,-12.,75.));
#591=CARTESIAN_POINT('',(-82.7941230308561,-10.,0.));
#592=CARTESIAN_POINT('',(87.,-8.00000000000012,71.));
#593=CARTESIAN_POINT('',(-87.,-8.00000000000012,71.));
#594=CARTESIAN_POINT('',(-87.,-8.00000000000012,69.));
#595=CARTESIAN_POINT('',(3.53883589099266E-13,-10.,67.9999999999995));
#596=CARTESIAN_POINT('',(-87.,-10.,66.));
#597=CARTESIAN_POINT('',(-87.,-10.,66.));
#598=CARTESIAN_POINT('',(-87.,-10.,68.));
#599=CARTESIAN_POINT('',(0.,-10.,73.));
#600=CARTESIAN_POINT('',(-79.,-10.,75.));
#601=CARTESIAN_POINT('',(-87.,-10.,75.));
#602=CARTESIAN_POINT('',(-87.,-10.,73.));
#603=CARTESIAN_POINT('',(-87.,262.648053486029,66.));
#604=CARTESIAN_POINT('',(-87.,0.,66.));
#605=CARTESIAN_POINT('',(-64.,0.,65.9999999999998));
#606=CARTESIAN_POINT('',(-87.,0.,66.));
#607=CARTESIAN_POINT('',(-64.,262.648053486029,65.9999999999998));
#608=CARTESIAN_POINT('',(-64.,-3.,65.9999999999999));
#609=CARTESIAN_POINT('',(-62.,-3.,65.9999999999999));
#610=CARTESIAN_POINT('',(-87.,-12.,66.));
#611=CARTESIAN_POINT('',(-79.,262.648053486029,75.));
#612=CARTESIAN_POINT('',(-87.,-3.,75.));
#613=CARTESIAN_POINT('',(-64.,-3.,75.));
#614=CARTESIAN_POINT('',(-64.,262.648053486029,75.));
#615=CARTESIAN_POINT('',(-64.,0.,75.));
#616=CARTESIAN_POINT('',(-79.,0.,75.));
#617=CARTESIAN_POINT('',(-87.,0.,75.));
#618=CARTESIAN_POINT('',(-87.,-12.,75.));
#619=CARTESIAN_POINT('',(-87.,-12.,75.));
#620=CARTESIAN_POINT('',(-87.,0.,75.));
#621=CARTESIAN_POINT('',(0.,0.,0.));
#622=CARTESIAN_POINT('',(-66.,0.,70.5));
#623=CARTESIAN_POINT('',(-66.,0.,68.7));
#624=CARTESIAN_POINT('',(-76.,0.,70.5));
#625=CARTESIAN_POINT('',(-76.,0.,68.7));
#626=CARTESIAN_POINT('',(-62.,0.,75.));
#627=CARTESIAN_POINT('',(-62.,0.,73.));
#628=CARTESIAN_POINT('',(-62.,0.,67.9999999999998));
#629=CARTESIAN_POINT('',(-64.,0.,67.9999999999998));
#630=CARTESIAN_POINT('',(-64.,0.,73.));
#631=CARTESIAN_POINT('',(-62.,-3.,75.));
#632=CARTESIAN_POINT('',(-62.,-3.,75.));
#633=CARTESIAN_POINT('',(-62.,-3.,73.));
#634=CARTESIAN_POINT('',(-62.,-3.,67.9999999999998));
#635=CARTESIAN_POINT('',(-62.,-3.,67.9999999999998));
#636=CARTESIAN_POINT('',(-62.,-3.,73.));
#637=CARTESIAN_POINT('',(0.,-3.,0.));
#638=CARTESIAN_POINT('',(-66.,-3.,70.5));
#639=CARTESIAN_POINT('',(-66.,-3.,73.97));
#640=CARTESIAN_POINT('',(-76.,-3.,70.5));
#641=CARTESIAN_POINT('',(-76.,-3.,73.97));
#642=CARTESIAN_POINT('',(-64.,-3.,67.9999999999998));
#643=CARTESIAN_POINT('',(-64.,-3.,73.));
#644=CARTESIAN_POINT('',(-64.,-3.,67.9999999999998));
#645=CARTESIAN_POINT('',(-64.,262.648053486029,73.));
#646=CARTESIAN_POINT('',(-76.,27.8247594742266,70.5));
#647=CARTESIAN_POINT('',(-76.,-1.33,70.5));
#648=CARTESIAN_POINT('',(-76.,-1.33,72.3));
#649=CARTESIAN_POINT('',(-76.,-3.,70.5));
#650=CARTESIAN_POINT('',(-66.,27.8247594742266,70.5));
#651=CARTESIAN_POINT('',(-66.,-1.33,70.5));
#652=CARTESIAN_POINT('',(-66.,-1.33,72.3));
#653=CARTESIAN_POINT('',(-66.,-3.,70.5));
#654=MECHANICAL_DESIGN_GEOMETRIC_PRESENTATION_REPRESENTATION('',(#379),
#655);
#655=(
GEOMETRIC_REPRESENTATION_CONTEXT(3)
GLOBAL_UNCERTAINTY_ASSIGNED_CONTEXT((#656))
GLOBAL_UNIT_ASSIGNED_CONTEXT((#659,#658,#657))
REPRESENTATION_CONTEXT('SEG-P-024-00','TOP_LEVEL_ASSEMBLY_PART')
);
#656=UNCERTAINTY_MEASURE_WITH_UNIT(LENGTH_MEASURE(1.E-5),#659,
'DISTANCE_ACCURACY_VALUE','Maximum Tolerance applied to model');
#657=(
NAMED_UNIT(*)
SI_UNIT($,.STERADIAN.)
SOLID_ANGLE_UNIT()
);
#658=(
NAMED_UNIT(*)
PLANE_ANGLE_UNIT()
SI_UNIT($,.RADIAN.)
);
#659=(
LENGTH_UNIT()
NAMED_UNIT(*)
SI_UNIT(.MILLI.,.METRE.)
);
#660=PRODUCT_DEFINITION_SHAPE('','',#661);
#661=PRODUCT_DEFINITION('','',#663,#662);
#662=PRODUCT_DEFINITION_CONTEXT('',#669,'design');
#663=PRODUCT_DEFINITION_FORMATION_WITH_SPECIFIED_SOURCE('','',#665,
 .NOT_KNOWN.);
#664=PRODUCT_RELATED_PRODUCT_CATEGORY('','',(#665));
#665=PRODUCT('SEG-P-024-00','SEG-P-024-00','SEG-P-024-00',(#667));
#666=PRODUCT_CATEGORY('','');
#667=PRODUCT_CONTEXT('',#669,'mechanical');
#668=APPLICATION_PROTOCOL_DEFINITION('international standard',
'automotive_design',2010,#669);
#669=APPLICATION_CONTEXT(
'core data for automotive mechanical design processes');
ENDSEC;
END-ISO-10303-21;
