ISO-10303-21;
HEADER;
/* Generated by software containing ST-Developer
 * from STEP Tools, Inc. (www.steptools.com) 
 */
/* OPTION: using custom renumber hook */
/* OPTION: strings as raw bytes, not using required /X/ escapes */

FILE_DESCRIPTION(
/* description */ ('Unknown'),
/* implementation_level */ '2;1');

FILE_NAME(
/* name */ 'SEG-P-014-00',
/* time_stamp */ '2026-08-09T14:17:52+02:00',
/* author */ ('Unknown'),
/* organization */ ('Unknown'),
/* preprocessor_version */ 'ST-DEVELOPER v20',
/* originating_system */ 'Solid Edge',
/* authorisation */ 'Unknown');

FILE_SCHEMA (('AP203_CONFIGURATION_CONTROLLED_3D_DESIGN_OF_MECHANICAL_PARTS_AND_ASSEMBLIES_MIM_LF { 1 0 10303 203 3 1 4 }',
'AUTOMOTIVE_DESIGN {1 0 10303 214 3 1 1}'));
ENDSEC;

DATA;
#10=PROPERTY_DEFINITION_REPRESENTATION(#14,#12);
#11=PROPERTY_DEFINITION_REPRESENTATION(#15,#13);
#12=REPRESENTATION('',(#16),#1749);
#13=REPRESENTATION('',(#17),#1749);
#14=PROPERTY_DEFINITION('pmi validation property','',#1754);
#15=PROPERTY_DEFINITION('pmi validation property','',#1754);
#16=VALUE_REPRESENTATION_ITEM('number of annotations',COUNT_MEASURE(0.));
#17=VALUE_REPRESENTATION_ITEM('number of views',COUNT_MEASURE(0.));
#18=SHAPE_REPRESENTATION_RELATIONSHIP('','',#1027,#19);
#19=ADVANCED_BREP_SHAPE_REPRESENTATION('',(#1025),#1749);
#20=TOROIDAL_SURFACE('',#1127,1.,0.5);
#21=TOROIDAL_SURFACE('',#1131,1.,0.5);
#22=TOROIDAL_SURFACE('',#1136,1.,0.5);
#23=TOROIDAL_SURFACE('',#1140,1.,0.5);
#24=SPHERICAL_SURFACE('',#1081,0.5);
#25=SPHERICAL_SURFACE('',#1090,0.5);
#26=SPHERICAL_SURFACE('',#1092,0.5);
#27=SPHERICAL_SURFACE('',#1101,0.5);
#28=SPHERICAL_SURFACE('',#1103,0.5);
#29=SPHERICAL_SURFACE('',#1114,0.5);
#30=SPHERICAL_SURFACE('',#1116,0.5);
#31=SPHERICAL_SURFACE('',#1122,0.5);
#32=ELLIPSE('',#1038,0.500433839561013,0.5);
#33=ELLIPSE('',#1039,0.500433839561013,0.5);
#34=ELLIPSE('',#1046,0.500433839561013,0.5);
#35=ELLIPSE('',#1049,0.500433839561013,0.5);
#36=CIRCLE('',#1031,1.6);
#37=CIRCLE('',#1032,1.6);
#38=CIRCLE('',#1034,1.6);
#39=CIRCLE('',#1035,1.6);
#40=CIRCLE('',#1040,0.5);
#41=CIRCLE('',#1041,0.5);
#42=CIRCLE('',#1047,0.5);
#43=CIRCLE('',#1048,0.5);
#44=CIRCLE('',#1052,1.);
#45=CIRCLE('',#1053,1.);
#46=CIRCLE('',#1055,1.);
#47=CIRCLE('',#1056,1.);
#48=CIRCLE('',#1074,0.5);
#49=CIRCLE('',#1075,0.5);
#50=CIRCLE('',#1077,0.5);
#51=CIRCLE('',#1078,0.5);
#52=CIRCLE('',#1080,0.5);
#53=CIRCLE('',#1082,0.5);
#54=CIRCLE('',#1083,0.5);
#55=CIRCLE('',#1085,0.5);
#56=CIRCLE('',#1087,0.5);
#57=CIRCLE('',#1089,0.5);
#58=CIRCLE('',#1091,0.5);
#59=CIRCLE('',#1093,0.5);
#60=CIRCLE('',#1094,0.5);
#61=CIRCLE('',#1096,0.5);
#62=CIRCLE('',#1098,0.5);
#63=CIRCLE('',#1100,0.5);
#64=CIRCLE('',#1102,0.5);
#65=CIRCLE('',#1104,0.5);
#66=CIRCLE('',#1105,0.5);
#67=CIRCLE('',#1107,0.5);
#68=CIRCLE('',#1109,0.5);
#69=CIRCLE('',#1111,0.5);
#70=CIRCLE('',#1113,0.5);
#71=CIRCLE('',#1115,0.5);
#72=CIRCLE('',#1117,0.5);
#73=CIRCLE('',#1119,0.5);
#74=CIRCLE('',#1121,0.5);
#75=CIRCLE('',#1123,0.5);
#76=CIRCLE('',#1126,0.5);
#77=CIRCLE('',#1128,0.5);
#78=CIRCLE('',#1130,0.5);
#79=CIRCLE('',#1132,0.5);
#80=CIRCLE('',#1135,0.5);
#81=CIRCLE('',#1137,0.5);
#82=CIRCLE('',#1139,0.5);
#83=CIRCLE('',#1141,0.5);
#84=CYLINDRICAL_SURFACE('',#1030,1.6);
#85=CYLINDRICAL_SURFACE('',#1033,1.6);
#86=CYLINDRICAL_SURFACE('',#1073,0.5);
#87=CYLINDRICAL_SURFACE('',#1076,0.5);
#88=CYLINDRICAL_SURFACE('',#1079,0.5);
#89=CYLINDRICAL_SURFACE('',#1084,0.5);
#90=CYLINDRICAL_SURFACE('',#1086,0.5);
#91=CYLINDRICAL_SURFACE('',#1088,0.5);
#92=CYLINDRICAL_SURFACE('',#1095,0.5);
#93=CYLINDRICAL_SURFACE('',#1097,0.5);
#94=CYLINDRICAL_SURFACE('',#1099,0.5);
#95=CYLINDRICAL_SURFACE('',#1106,0.5);
#96=CYLINDRICAL_SURFACE('',#1108,0.5);
#97=CYLINDRICAL_SURFACE('',#1110,0.5);
#98=CYLINDRICAL_SURFACE('',#1112,0.5);
#99=CYLINDRICAL_SURFACE('',#1118,0.5);
#100=CYLINDRICAL_SURFACE('',#1120,0.5);
#101=CYLINDRICAL_SURFACE('',#1124,0.5);
#102=CYLINDRICAL_SURFACE('',#1125,0.5);
#103=CYLINDRICAL_SURFACE('',#1129,0.5);
#104=CYLINDRICAL_SURFACE('',#1133,0.5);
#105=CYLINDRICAL_SURFACE('',#1134,0.5);
#106=CYLINDRICAL_SURFACE('',#1138,0.5);
#107=CYLINDRICAL_SURFACE('',#1142,0.5);
#108=ORIENTED_EDGE('',*,*,#388,.T.);
#109=ORIENTED_EDGE('',*,*,#389,.T.);
#110=ORIENTED_EDGE('',*,*,#390,.T.);
#111=ORIENTED_EDGE('',*,*,#391,.T.);
#112=ORIENTED_EDGE('',*,*,#392,.T.);
#113=ORIENTED_EDGE('',*,*,#393,.F.);
#114=ORIENTED_EDGE('',*,*,#394,.T.);
#115=ORIENTED_EDGE('',*,*,#395,.F.);
#116=ORIENTED_EDGE('',*,*,#396,.F.);
#117=ORIENTED_EDGE('',*,*,#397,.T.);
#118=ORIENTED_EDGE('',*,*,#398,.T.);
#119=ORIENTED_EDGE('',*,*,#399,.T.);
#120=ORIENTED_EDGE('',*,*,#394,.F.);
#121=ORIENTED_EDGE('',*,*,#400,.T.);
#122=ORIENTED_EDGE('',*,*,#401,.T.);
#123=ORIENTED_EDGE('',*,*,#402,.F.);
#124=ORIENTED_EDGE('',*,*,#403,.T.);
#125=ORIENTED_EDGE('',*,*,#404,.F.);
#126=ORIENTED_EDGE('',*,*,#405,.T.);
#127=ORIENTED_EDGE('',*,*,#396,.T.);
#128=ORIENTED_EDGE('',*,*,#406,.T.);
#129=ORIENTED_EDGE('',*,*,#402,.T.);
#130=ORIENTED_EDGE('',*,*,#407,.T.);
#131=ORIENTED_EDGE('',*,*,#408,.T.);
#132=ORIENTED_EDGE('',*,*,#409,.T.);
#133=ORIENTED_EDGE('',*,*,#410,.T.);
#134=ORIENTED_EDGE('',*,*,#411,.T.);
#135=ORIENTED_EDGE('',*,*,#412,.T.);
#136=ORIENTED_EDGE('',*,*,#413,.T.);
#137=ORIENTED_EDGE('',*,*,#414,.T.);
#138=ORIENTED_EDGE('',*,*,#415,.T.);
#139=ORIENTED_EDGE('',*,*,#416,.F.);
#140=ORIENTED_EDGE('',*,*,#417,.T.);
#141=ORIENTED_EDGE('',*,*,#392,.F.);
#142=ORIENTED_EDGE('',*,*,#416,.T.);
#143=ORIENTED_EDGE('',*,*,#418,.T.);
#144=ORIENTED_EDGE('',*,*,#419,.T.);
#145=ORIENTED_EDGE('',*,*,#420,.T.);
#146=ORIENTED_EDGE('',*,*,#421,.F.);
#147=ORIENTED_EDGE('',*,*,#422,.T.);
#148=ORIENTED_EDGE('',*,*,#423,.F.);
#149=ORIENTED_EDGE('',*,*,#424,.T.);
#150=ORIENTED_EDGE('',*,*,#425,.T.);
#151=ORIENTED_EDGE('',*,*,#426,.T.);
#152=ORIENTED_EDGE('',*,*,#421,.T.);
#153=ORIENTED_EDGE('',*,*,#427,.T.);
#154=ORIENTED_EDGE('',*,*,#404,.T.);
#155=ORIENTED_EDGE('',*,*,#428,.T.);
#156=ORIENTED_EDGE('',*,*,#429,.T.);
#157=ORIENTED_EDGE('',*,*,#430,.T.);
#158=ORIENTED_EDGE('',*,*,#431,.T.);
#159=ORIENTED_EDGE('',*,*,#432,.T.);
#160=ORIENTED_EDGE('',*,*,#423,.T.);
#161=ORIENTED_EDGE('',*,*,#433,.T.);
#162=ORIENTED_EDGE('',*,*,#434,.T.);
#163=ORIENTED_EDGE('',*,*,#435,.T.);
#164=ORIENTED_EDGE('',*,*,#436,.T.);
#165=ORIENTED_EDGE('',*,*,#437,.T.);
#166=ORIENTED_EDGE('',*,*,#419,.F.);
#167=ORIENTED_EDGE('',*,*,#438,.T.);
#168=ORIENTED_EDGE('',*,*,#439,.T.);
#169=ORIENTED_EDGE('',*,*,#440,.T.);
#170=ORIENTED_EDGE('',*,*,#441,.T.);
#171=ORIENTED_EDGE('',*,*,#442,.T.);
#172=ORIENTED_EDGE('',*,*,#400,.F.);
#173=ORIENTED_EDGE('',*,*,#443,.T.);
#174=ORIENTED_EDGE('',*,*,#444,.T.);
#175=ORIENTED_EDGE('',*,*,#445,.T.);
#176=ORIENTED_EDGE('',*,*,#446,.T.);
#177=ORIENTED_EDGE('',*,*,#447,.T.);
#178=ORIENTED_EDGE('',*,*,#448,.T.);
#179=ORIENTED_EDGE('',*,*,#449,.T.);
#180=ORIENTED_EDGE('',*,*,#450,.T.);
#181=ORIENTED_EDGE('',*,*,#451,.T.);
#182=ORIENTED_EDGE('',*,*,#452,.T.);
#183=ORIENTED_EDGE('',*,*,#453,.T.);
#184=ORIENTED_EDGE('',*,*,#395,.T.);
#185=ORIENTED_EDGE('',*,*,#454,.T.);
#186=ORIENTED_EDGE('',*,*,#455,.T.);
#187=ORIENTED_EDGE('',*,*,#456,.F.);
#188=ORIENTED_EDGE('',*,*,#448,.F.);
#189=ORIENTED_EDGE('',*,*,#456,.T.);
#190=ORIENTED_EDGE('',*,*,#457,.T.);
#191=ORIENTED_EDGE('',*,*,#458,.F.);
#192=ORIENTED_EDGE('',*,*,#449,.F.);
#193=ORIENTED_EDGE('',*,*,#458,.T.);
#194=ORIENTED_EDGE('',*,*,#459,.T.);
#195=ORIENTED_EDGE('',*,*,#460,.F.);
#196=ORIENTED_EDGE('',*,*,#450,.F.);
#197=ORIENTED_EDGE('',*,*,#460,.T.);
#198=ORIENTED_EDGE('',*,*,#461,.T.);
#199=ORIENTED_EDGE('',*,*,#462,.F.);
#200=ORIENTED_EDGE('',*,*,#451,.F.);
#201=ORIENTED_EDGE('',*,*,#462,.T.);
#202=ORIENTED_EDGE('',*,*,#463,.T.);
#203=ORIENTED_EDGE('',*,*,#464,.F.);
#204=ORIENTED_EDGE('',*,*,#452,.F.);
#205=ORIENTED_EDGE('',*,*,#464,.T.);
#206=ORIENTED_EDGE('',*,*,#465,.T.);
#207=ORIENTED_EDGE('',*,*,#454,.F.);
#208=ORIENTED_EDGE('',*,*,#453,.F.);
#209=ORIENTED_EDGE('',*,*,#466,.T.);
#210=ORIENTED_EDGE('',*,*,#467,.T.);
#211=ORIENTED_EDGE('',*,*,#468,.T.);
#212=ORIENTED_EDGE('',*,*,#469,.T.);
#213=ORIENTED_EDGE('',*,*,#465,.F.);
#214=ORIENTED_EDGE('',*,*,#463,.F.);
#215=ORIENTED_EDGE('',*,*,#461,.F.);
#216=ORIENTED_EDGE('',*,*,#459,.F.);
#217=ORIENTED_EDGE('',*,*,#457,.F.);
#218=ORIENTED_EDGE('',*,*,#455,.F.);
#219=ORIENTED_EDGE('',*,*,#470,.T.);
#220=ORIENTED_EDGE('',*,*,#471,.T.);
#221=ORIENTED_EDGE('',*,*,#472,.T.);
#222=ORIENTED_EDGE('',*,*,#473,.T.);
#223=ORIENTED_EDGE('',*,*,#474,.T.);
#224=ORIENTED_EDGE('',*,*,#475,.T.);
#225=ORIENTED_EDGE('',*,*,#393,.T.);
#226=ORIENTED_EDGE('',*,*,#476,.T.);
#227=ORIENTED_EDGE('',*,*,#477,.T.);
#228=ORIENTED_EDGE('',*,*,#478,.F.);
#229=ORIENTED_EDGE('',*,*,#470,.F.);
#230=ORIENTED_EDGE('',*,*,#478,.T.);
#231=ORIENTED_EDGE('',*,*,#479,.T.);
#232=ORIENTED_EDGE('',*,*,#480,.F.);
#233=ORIENTED_EDGE('',*,*,#471,.F.);
#234=ORIENTED_EDGE('',*,*,#480,.T.);
#235=ORIENTED_EDGE('',*,*,#481,.T.);
#236=ORIENTED_EDGE('',*,*,#482,.F.);
#237=ORIENTED_EDGE('',*,*,#472,.F.);
#238=ORIENTED_EDGE('',*,*,#482,.T.);
#239=ORIENTED_EDGE('',*,*,#483,.T.);
#240=ORIENTED_EDGE('',*,*,#484,.F.);
#241=ORIENTED_EDGE('',*,*,#473,.F.);
#242=ORIENTED_EDGE('',*,*,#484,.T.);
#243=ORIENTED_EDGE('',*,*,#485,.T.);
#244=ORIENTED_EDGE('',*,*,#486,.F.);
#245=ORIENTED_EDGE('',*,*,#474,.F.);
#246=ORIENTED_EDGE('',*,*,#486,.T.);
#247=ORIENTED_EDGE('',*,*,#487,.T.);
#248=ORIENTED_EDGE('',*,*,#476,.F.);
#249=ORIENTED_EDGE('',*,*,#475,.F.);
#250=ORIENTED_EDGE('',*,*,#488,.T.);
#251=ORIENTED_EDGE('',*,*,#489,.T.);
#252=ORIENTED_EDGE('',*,*,#490,.T.);
#253=ORIENTED_EDGE('',*,*,#491,.T.);
#254=ORIENTED_EDGE('',*,*,#487,.F.);
#255=ORIENTED_EDGE('',*,*,#485,.F.);
#256=ORIENTED_EDGE('',*,*,#483,.F.);
#257=ORIENTED_EDGE('',*,*,#481,.F.);
#258=ORIENTED_EDGE('',*,*,#479,.F.);
#259=ORIENTED_EDGE('',*,*,#477,.F.);
#260=ORIENTED_EDGE('',*,*,#408,.F.);
#261=ORIENTED_EDGE('',*,*,#492,.T.);
#262=ORIENTED_EDGE('',*,*,#410,.F.);
#263=ORIENTED_EDGE('',*,*,#493,.T.);
#264=ORIENTED_EDGE('',*,*,#412,.F.);
#265=ORIENTED_EDGE('',*,*,#494,.T.);
#266=ORIENTED_EDGE('',*,*,#414,.F.);
#267=ORIENTED_EDGE('',*,*,#495,.T.);
#268=ORIENTED_EDGE('',*,*,#496,.F.);
#269=ORIENTED_EDGE('',*,*,#443,.F.);
#270=ORIENTED_EDGE('',*,*,#406,.F.);
#271=ORIENTED_EDGE('',*,*,#399,.F.);
#272=ORIENTED_EDGE('',*,*,#497,.F.);
#273=ORIENTED_EDGE('',*,*,#496,.T.);
#274=ORIENTED_EDGE('',*,*,#498,.F.);
#275=ORIENTED_EDGE('',*,*,#405,.F.);
#276=ORIENTED_EDGE('',*,*,#437,.F.);
#277=ORIENTED_EDGE('',*,*,#499,.F.);
#278=ORIENTED_EDGE('',*,*,#397,.F.);
#279=ORIENTED_EDGE('',*,*,#498,.T.);
#280=ORIENTED_EDGE('',*,*,#398,.F.);
#281=ORIENTED_EDGE('',*,*,#500,.F.);
#282=ORIENTED_EDGE('',*,*,#467,.F.);
#283=ORIENTED_EDGE('',*,*,#497,.T.);
#284=ORIENTED_EDGE('',*,*,#466,.F.);
#285=ORIENTED_EDGE('',*,*,#501,.F.);
#286=ORIENTED_EDGE('',*,*,#444,.F.);
#287=ORIENTED_EDGE('',*,*,#500,.T.);
#288=ORIENTED_EDGE('',*,*,#499,.T.);
#289=ORIENTED_EDGE('',*,*,#502,.F.);
#290=ORIENTED_EDGE('',*,*,#503,.F.);
#291=ORIENTED_EDGE('',*,*,#501,.T.);
#292=ORIENTED_EDGE('',*,*,#504,.F.);
#293=ORIENTED_EDGE('',*,*,#502,.T.);
#294=ORIENTED_EDGE('',*,*,#436,.F.);
#295=ORIENTED_EDGE('',*,*,#505,.F.);
#296=ORIENTED_EDGE('',*,*,#468,.F.);
#297=ORIENTED_EDGE('',*,*,#504,.T.);
#298=ORIENTED_EDGE('',*,*,#469,.F.);
#299=ORIENTED_EDGE('',*,*,#506,.F.);
#300=ORIENTED_EDGE('',*,*,#391,.F.);
#301=ORIENTED_EDGE('',*,*,#503,.T.);
#302=ORIENTED_EDGE('',*,*,#390,.F.);
#303=ORIENTED_EDGE('',*,*,#507,.F.);
#304=ORIENTED_EDGE('',*,*,#445,.F.);
#305=ORIENTED_EDGE('',*,*,#506,.T.);
#306=ORIENTED_EDGE('',*,*,#505,.T.);
#307=ORIENTED_EDGE('',*,*,#508,.F.);
#308=ORIENTED_EDGE('',*,*,#509,.F.);
#309=ORIENTED_EDGE('',*,*,#507,.T.);
#310=ORIENTED_EDGE('',*,*,#510,.F.);
#311=ORIENTED_EDGE('',*,*,#508,.T.);
#312=ORIENTED_EDGE('',*,*,#435,.F.);
#313=ORIENTED_EDGE('',*,*,#511,.F.);
#314=ORIENTED_EDGE('',*,*,#388,.F.);
#315=ORIENTED_EDGE('',*,*,#510,.T.);
#316=ORIENTED_EDGE('',*,*,#389,.F.);
#317=ORIENTED_EDGE('',*,*,#512,.F.);
#318=ORIENTED_EDGE('',*,*,#491,.F.);
#319=ORIENTED_EDGE('',*,*,#509,.T.);
#320=ORIENTED_EDGE('',*,*,#490,.F.);
#321=ORIENTED_EDGE('',*,*,#513,.F.);
#322=ORIENTED_EDGE('',*,*,#446,.F.);
#323=ORIENTED_EDGE('',*,*,#420,.F.);
#324=ORIENTED_EDGE('',*,*,#447,.F.);
#325=ORIENTED_EDGE('',*,*,#514,.F.);
#326=ORIENTED_EDGE('',*,*,#427,.F.);
#327=ORIENTED_EDGE('',*,*,#512,.T.);
#328=ORIENTED_EDGE('',*,*,#511,.T.);
#329=ORIENTED_EDGE('',*,*,#515,.F.);
#330=ORIENTED_EDGE('',*,*,#514,.T.);
#331=ORIENTED_EDGE('',*,*,#513,.T.);
#332=ORIENTED_EDGE('',*,*,#516,.F.);
#333=ORIENTED_EDGE('',*,*,#515,.T.);
#334=ORIENTED_EDGE('',*,*,#434,.F.);
#335=ORIENTED_EDGE('',*,*,#517,.F.);
#336=ORIENTED_EDGE('',*,*,#488,.F.);
#337=ORIENTED_EDGE('',*,*,#516,.T.);
#338=ORIENTED_EDGE('',*,*,#489,.F.);
#339=ORIENTED_EDGE('',*,*,#518,.F.);
#340=ORIENTED_EDGE('',*,*,#425,.F.);
#341=ORIENTED_EDGE('',*,*,#518,.T.);
#342=ORIENTED_EDGE('',*,*,#517,.T.);
#343=ORIENTED_EDGE('',*,*,#519,.F.);
#344=ORIENTED_EDGE('',*,*,#422,.F.);
#345=ORIENTED_EDGE('',*,*,#426,.F.);
#346=ORIENTED_EDGE('',*,*,#519,.T.);
#347=ORIENTED_EDGE('',*,*,#433,.F.);
#348=ORIENTED_EDGE('',*,*,#424,.F.);
#349=ORIENTED_EDGE('',*,*,#432,.F.);
#350=ORIENTED_EDGE('',*,*,#520,.F.);
#351=ORIENTED_EDGE('',*,*,#417,.F.);
#352=ORIENTED_EDGE('',*,*,#520,.T.);
#353=ORIENTED_EDGE('',*,*,#431,.F.);
#354=ORIENTED_EDGE('',*,*,#521,.F.);
#355=ORIENTED_EDGE('',*,*,#495,.F.);
#356=ORIENTED_EDGE('',*,*,#521,.T.);
#357=ORIENTED_EDGE('',*,*,#430,.F.);
#358=ORIENTED_EDGE('',*,*,#522,.F.);
#359=ORIENTED_EDGE('',*,*,#413,.F.);
#360=ORIENTED_EDGE('',*,*,#522,.T.);
#361=ORIENTED_EDGE('',*,*,#429,.F.);
#362=ORIENTED_EDGE('',*,*,#523,.F.);
#363=ORIENTED_EDGE('',*,*,#493,.F.);
#364=ORIENTED_EDGE('',*,*,#403,.F.);
#365=ORIENTED_EDGE('',*,*,#409,.F.);
#366=ORIENTED_EDGE('',*,*,#523,.T.);
#367=ORIENTED_EDGE('',*,*,#428,.F.);
#368=ORIENTED_EDGE('',*,*,#401,.F.);
#369=ORIENTED_EDGE('',*,*,#442,.F.);
#370=ORIENTED_EDGE('',*,*,#524,.F.);
#371=ORIENTED_EDGE('',*,*,#407,.F.);
#372=ORIENTED_EDGE('',*,*,#524,.T.);
#373=ORIENTED_EDGE('',*,*,#441,.F.);
#374=ORIENTED_EDGE('',*,*,#525,.F.);
#375=ORIENTED_EDGE('',*,*,#492,.F.);
#376=ORIENTED_EDGE('',*,*,#525,.T.);
#377=ORIENTED_EDGE('',*,*,#440,.F.);
#378=ORIENTED_EDGE('',*,*,#526,.F.);
#379=ORIENTED_EDGE('',*,*,#411,.F.);
#380=ORIENTED_EDGE('',*,*,#526,.T.);
#381=ORIENTED_EDGE('',*,*,#439,.F.);
#382=ORIENTED_EDGE('',*,*,#527,.F.);
#383=ORIENTED_EDGE('',*,*,#494,.F.);
#384=ORIENTED_EDGE('',*,*,#527,.T.);
#385=ORIENTED_EDGE('',*,*,#438,.F.);
#386=ORIENTED_EDGE('',*,*,#418,.F.);
#387=ORIENTED_EDGE('',*,*,#415,.F.);
#388=EDGE_CURVE('',#528,#529,#612,.F.);
#389=EDGE_CURVE('',#529,#530,#613,.F.);
#390=EDGE_CURVE('',#530,#531,#614,.T.);
#391=EDGE_CURVE('',#531,#528,#615,.T.);
#392=EDGE_CURVE('',#532,#532,#36,.T.);
#393=EDGE_CURVE('',#533,#533,#37,.F.);
#394=EDGE_CURVE('',#534,#534,#38,.T.);
#395=EDGE_CURVE('',#535,#535,#39,.F.);
#396=EDGE_CURVE('',#536,#537,#616,.T.);
#397=EDGE_CURVE('',#536,#538,#617,.F.);
#398=EDGE_CURVE('',#538,#539,#618,.F.);
#399=EDGE_CURVE('',#539,#537,#619,.T.);
#400=EDGE_CURVE('',#540,#541,#620,.T.);
#401=EDGE_CURVE('',#541,#542,#32,.F.);
#402=EDGE_CURVE('',#543,#542,#621,.T.);
#403=EDGE_CURVE('',#543,#544,#33,.F.);
#404=EDGE_CURVE('',#545,#544,#622,.T.);
#405=EDGE_CURVE('',#545,#536,#40,.F.);
#406=EDGE_CURVE('',#537,#540,#41,.F.);
#407=EDGE_CURVE('',#542,#546,#623,.T.);
#408=EDGE_CURVE('',#546,#547,#624,.F.);
#409=EDGE_CURVE('',#547,#543,#625,.F.);
#410=EDGE_CURVE('',#548,#549,#626,.T.);
#411=EDGE_CURVE('',#549,#550,#627,.T.);
#412=EDGE_CURVE('',#550,#551,#628,.F.);
#413=EDGE_CURVE('',#551,#548,#629,.F.);
#414=EDGE_CURVE('',#552,#553,#630,.T.);
#415=EDGE_CURVE('',#553,#554,#631,.T.);
#416=EDGE_CURVE('',#555,#554,#632,.T.);
#417=EDGE_CURVE('',#555,#552,#633,.F.);
#418=EDGE_CURVE('',#554,#556,#34,.F.);
#419=EDGE_CURVE('',#556,#557,#634,.T.);
#420=EDGE_CURVE('',#557,#558,#42,.F.);
#421=EDGE_CURVE('',#559,#558,#635,.T.);
#422=EDGE_CURVE('',#559,#560,#43,.F.);
#423=EDGE_CURVE('',#561,#560,#636,.T.);
#424=EDGE_CURVE('',#561,#555,#35,.F.);
#425=EDGE_CURVE('',#562,#563,#637,.T.);
#426=EDGE_CURVE('',#563,#559,#638,.F.);
#427=EDGE_CURVE('',#558,#562,#639,.T.);
#428=EDGE_CURVE('',#544,#564,#640,.T.);
#429=EDGE_CURVE('',#564,#565,#44,.F.);
#430=EDGE_CURVE('',#565,#566,#641,.T.);
#431=EDGE_CURVE('',#566,#567,#45,.F.);
#432=EDGE_CURVE('',#567,#561,#642,.T.);
#433=EDGE_CURVE('',#560,#568,#643,.T.);
#434=EDGE_CURVE('',#568,#569,#644,.F.);
#435=EDGE_CURVE('',#569,#570,#645,.T.);
#436=EDGE_CURVE('',#570,#571,#646,.F.);
#437=EDGE_CURVE('',#571,#545,#647,.T.);
#438=EDGE_CURVE('',#556,#572,#648,.F.);
#439=EDGE_CURVE('',#572,#573,#46,.T.);
#440=EDGE_CURVE('',#573,#574,#649,.F.);
#441=EDGE_CURVE('',#574,#575,#47,.T.);
#442=EDGE_CURVE('',#575,#541,#650,.F.);
#443=EDGE_CURVE('',#540,#576,#651,.F.);
#444=EDGE_CURVE('',#576,#577,#652,.T.);
#445=EDGE_CURVE('',#577,#578,#653,.F.);
#446=EDGE_CURVE('',#578,#579,#654,.T.);
#447=EDGE_CURVE('',#579,#557,#655,.F.);
#448=EDGE_CURVE('',#580,#581,#656,.T.);
#449=EDGE_CURVE('',#581,#582,#657,.T.);
#450=EDGE_CURVE('',#582,#583,#658,.T.);
#451=EDGE_CURVE('',#583,#584,#659,.T.);
#452=EDGE_CURVE('',#584,#585,#660,.T.);
#453=EDGE_CURVE('',#585,#580,#661,.T.);
#454=EDGE_CURVE('',#580,#586,#662,.T.);
#455=EDGE_CURVE('',#586,#587,#663,.T.);
#456=EDGE_CURVE('',#581,#587,#664,.T.);
#457=EDGE_CURVE('',#587,#588,#665,.T.);
#458=EDGE_CURVE('',#582,#588,#666,.T.);
#459=EDGE_CURVE('',#588,#589,#667,.T.);
#460=EDGE_CURVE('',#583,#589,#668,.T.);
#461=EDGE_CURVE('',#589,#590,#669,.T.);
#462=EDGE_CURVE('',#584,#590,#670,.T.);
#463=EDGE_CURVE('',#590,#591,#671,.T.);
#464=EDGE_CURVE('',#585,#591,#672,.T.);
#465=EDGE_CURVE('',#591,#586,#673,.T.);
#466=EDGE_CURVE('',#592,#593,#674,.F.);
#467=EDGE_CURVE('',#593,#594,#675,.T.);
#468=EDGE_CURVE('',#594,#595,#676,.T.);
#469=EDGE_CURVE('',#595,#592,#677,.F.);
#470=EDGE_CURVE('',#596,#597,#678,.T.);
#471=EDGE_CURVE('',#597,#598,#679,.T.);
#472=EDGE_CURVE('',#598,#599,#680,.T.);
#473=EDGE_CURVE('',#599,#600,#681,.T.);
#474=EDGE_CURVE('',#600,#601,#682,.T.);
#475=EDGE_CURVE('',#601,#596,#683,.T.);
#476=EDGE_CURVE('',#596,#602,#684,.T.);
#477=EDGE_CURVE('',#602,#603,#685,.T.);
#478=EDGE_CURVE('',#597,#603,#686,.T.);
#479=EDGE_CURVE('',#603,#604,#687,.T.);
#480=EDGE_CURVE('',#598,#604,#688,.T.);
#481=EDGE_CURVE('',#604,#605,#689,.T.);
#482=EDGE_CURVE('',#599,#605,#690,.T.);
#483=EDGE_CURVE('',#605,#606,#691,.T.);
#484=EDGE_CURVE('',#600,#606,#692,.T.);
#485=EDGE_CURVE('',#606,#607,#693,.T.);
#486=EDGE_CURVE('',#601,#607,#694,.T.);
#487=EDGE_CURVE('',#607,#602,#695,.T.);
#488=EDGE_CURVE('',#608,#609,#696,.T.);
#489=EDGE_CURVE('',#609,#610,#697,.F.);
#490=EDGE_CURVE('',#610,#611,#698,.F.);
#491=EDGE_CURVE('',#611,#608,#699,.T.);
#492=EDGE_CURVE('',#546,#549,#48,.F.);
#493=EDGE_CURVE('',#548,#547,#49,.T.);
#494=EDGE_CURVE('',#550,#553,#50,.F.);
#495=EDGE_CURVE('',#552,#551,#51,.T.);
#496=EDGE_CURVE('',#576,#539,#52,.T.);
#497=EDGE_CURVE('',#576,#593,#53,.F.);
#498=EDGE_CURVE('',#593,#539,#54,.F.);
#499=EDGE_CURVE('',#538,#571,#55,.T.);
#500=EDGE_CURVE('',#594,#538,#56,.T.);
#501=EDGE_CURVE('',#577,#592,#57,.T.);
#502=EDGE_CURVE('',#594,#571,#58,.F.);
#503=EDGE_CURVE('',#577,#531,#59,.F.);
#504=EDGE_CURVE('',#531,#592,#60,.F.);
#505=EDGE_CURVE('',#595,#570,#61,.T.);
#506=EDGE_CURVE('',#528,#595,#62,.T.);
#507=EDGE_CURVE('',#578,#530,#63,.T.);
#508=EDGE_CURVE('',#528,#570,#64,.F.);
#509=EDGE_CURVE('',#578,#611,#65,.F.);
#510=EDGE_CURVE('',#611,#530,#66,.F.);
#511=EDGE_CURVE('',#529,#569,#67,.T.);
#512=EDGE_CURVE('',#608,#529,#68,.T.);
#513=EDGE_CURVE('',#579,#610,#69,.T.);
#514=EDGE_CURVE('',#562,#579,#70,.T.);
#515=EDGE_CURVE('',#608,#569,#71,.F.);
#516=EDGE_CURVE('',#562,#610,#72,.F.);
#517=EDGE_CURVE('',#609,#568,#73,.T.);
#518=EDGE_CURVE('',#563,#609,#74,.T.);
#519=EDGE_CURVE('',#563,#568,#75,.F.);
#520=EDGE_CURVE('',#552,#567,#76,.T.);
#521=EDGE_CURVE('',#551,#566,#77,.T.);
#522=EDGE_CURVE('',#548,#565,#78,.T.);
#523=EDGE_CURVE('',#547,#564,#79,.T.);
#524=EDGE_CURVE('',#546,#575,#80,.T.);
#525=EDGE_CURVE('',#549,#574,#81,.T.);
#526=EDGE_CURVE('',#550,#573,#82,.T.);
#527=EDGE_CURVE('',#553,#572,#83,.T.);
#528=VERTEX_POINT('',#1464);
#529=VERTEX_POINT('',#1465);
#530=VERTEX_POINT('',#1467);
#531=VERTEX_POINT('',#1469);
#532=VERTEX_POINT('',#1473);
#533=VERTEX_POINT('',#1475);
#534=VERTEX_POINT('',#1478);
#535=VERTEX_POINT('',#1480);
#536=VERTEX_POINT('',#1483);
#537=VERTEX_POINT('',#1484);
#538=VERTEX_POINT('',#1486);
#539=VERTEX_POINT('',#1488);
#540=VERTEX_POINT('',#1492);
#541=VERTEX_POINT('',#1493);
#542=VERTEX_POINT('',#1495);
#543=VERTEX_POINT('',#1497);
#544=VERTEX_POINT('',#1499);
#545=VERTEX_POINT('',#1501);
#546=VERTEX_POINT('',#1506);
#547=VERTEX_POINT('',#1508);
#548=VERTEX_POINT('',#1512);
#549=VERTEX_POINT('',#1513);
#550=VERTEX_POINT('',#1515);
#551=VERTEX_POINT('',#1517);
#552=VERTEX_POINT('',#1521);
#553=VERTEX_POINT('',#1522);
#554=VERTEX_POINT('',#1524);
#555=VERTEX_POINT('',#1526);
#556=VERTEX_POINT('',#1530);
#557=VERTEX_POINT('',#1532);
#558=VERTEX_POINT('',#1534);
#559=VERTEX_POINT('',#1536);
#560=VERTEX_POINT('',#1538);
#561=VERTEX_POINT('',#1540);
#562=VERTEX_POINT('',#1544);
#563=VERTEX_POINT('',#1545);
#564=VERTEX_POINT('',#1550);
#565=VERTEX_POINT('',#1552);
#566=VERTEX_POINT('',#1554);
#567=VERTEX_POINT('',#1556);
#568=VERTEX_POINT('',#1559);
#569=VERTEX_POINT('',#1561);
#570=VERTEX_POINT('',#1563);
#571=VERTEX_POINT('',#1565);
#572=VERTEX_POINT('',#1569);
#573=VERTEX_POINT('',#1571);
#574=VERTEX_POINT('',#1573);
#575=VERTEX_POINT('',#1575);
#576=VERTEX_POINT('',#1578);
#577=VERTEX_POINT('',#1580);
#578=VERTEX_POINT('',#1582);
#579=VERTEX_POINT('',#1584);
#580=VERTEX_POINT('',#1588);
#581=VERTEX_POINT('',#1589);
#582=VERTEX_POINT('',#1591);
#583=VERTEX_POINT('',#1593);
#584=VERTEX_POINT('',#1595);
#585=VERTEX_POINT('',#1597);
#586=VERTEX_POINT('',#1601);
#587=VERTEX_POINT('',#1603);
#588=VERTEX_POINT('',#1607);
#589=VERTEX_POINT('',#1611);
#590=VERTEX_POINT('',#1615);
#591=VERTEX_POINT('',#1619);
#592=VERTEX_POINT('',#1625);
#593=VERTEX_POINT('',#1626);
#594=VERTEX_POINT('',#1628);
#595=VERTEX_POINT('',#1630);
#596=VERTEX_POINT('',#1634);
#597=VERTEX_POINT('',#1635);
#598=VERTEX_POINT('',#1637);
#599=VERTEX_POINT('',#1639);
#600=VERTEX_POINT('',#1641);
#601=VERTEX_POINT('',#1643);
#602=VERTEX_POINT('',#1647);
#603=VERTEX_POINT('',#1649);
#604=VERTEX_POINT('',#1653);
#605=VERTEX_POINT('',#1657);
#606=VERTEX_POINT('',#1661);
#607=VERTEX_POINT('',#1665);
#608=VERTEX_POINT('',#1671);
#609=VERTEX_POINT('',#1672);
#610=VERTEX_POINT('',#1674);
#611=VERTEX_POINT('',#1676);
#612=LINE('',#1463,#700);
#613=LINE('',#1466,#701);
#614=LINE('',#1468,#702);
#615=LINE('',#1470,#703);
#616=LINE('',#1482,#704);
#617=LINE('',#1485,#705);
#618=LINE('',#1487,#706);
#619=LINE('',#1489,#707);
#620=LINE('',#1491,#708);
#621=LINE('',#1496,#709);
#622=LINE('',#1500,#710);
#623=LINE('',#1505,#711);
#624=LINE('',#1507,#712);
#625=LINE('',#1509,#713);
#626=LINE('',#1511,#714);
#627=LINE('',#1514,#715);
#628=LINE('',#1516,#716);
#629=LINE('',#1518,#717);
#630=LINE('',#1520,#718);
#631=LINE('',#1523,#719);
#632=LINE('',#1525,#720);
#633=LINE('',#1527,#721);
#634=LINE('',#1531,#722);
#635=LINE('',#1535,#723);
#636=LINE('',#1539,#724);
#637=LINE('',#1543,#725);
#638=LINE('',#1546,#726);
#639=LINE('',#1547,#727);
#640=LINE('',#1549,#728);
#641=LINE('',#1553,#729);
#642=LINE('',#1557,#730);
#643=LINE('',#1558,#731);
#644=LINE('',#1560,#732);
#645=LINE('',#1562,#733);
#646=LINE('',#1564,#734);
#647=LINE('',#1566,#735);
#648=LINE('',#1568,#736);
#649=LINE('',#1572,#737);
#650=LINE('',#1576,#738);
#651=LINE('',#1577,#739);
#652=LINE('',#1579,#740);
#653=LINE('',#1581,#741);
#654=LINE('',#1583,#742);
#655=LINE('',#1585,#743);
#656=LINE('',#1587,#744);
#657=LINE('',#1590,#745);
#658=LINE('',#1592,#746);
#659=LINE('',#1594,#747);
#660=LINE('',#1596,#748);
#661=LINE('',#1598,#749);
#662=LINE('',#1600,#750);
#663=LINE('',#1602,#751);
#664=LINE('',#1604,#752);
#665=LINE('',#1606,#753);
#666=LINE('',#1608,#754);
#667=LINE('',#1610,#755);
#668=LINE('',#1612,#756);
#669=LINE('',#1614,#757);
#670=LINE('',#1616,#758);
#671=LINE('',#1618,#759);
#672=LINE('',#1620,#760);
#673=LINE('',#1622,#761);
#674=LINE('',#1624,#762);
#675=LINE('',#1627,#763);
#676=LINE('',#1629,#764);
#677=LINE('',#1631,#765);
#678=LINE('',#1633,#766);
#679=LINE('',#1636,#767);
#680=LINE('',#1638,#768);
#681=LINE('',#1640,#769);
#682=LINE('',#1642,#770);
#683=LINE('',#1644,#771);
#684=LINE('',#1646,#772);
#685=LINE('',#1648,#773);
#686=LINE('',#1650,#774);
#687=LINE('',#1652,#775);
#688=LINE('',#1654,#776);
#689=LINE('',#1656,#777);
#690=LINE('',#1658,#778);
#691=LINE('',#1660,#779);
#692=LINE('',#1662,#780);
#693=LINE('',#1664,#781);
#694=LINE('',#1666,#782);
#695=LINE('',#1668,#783);
#696=LINE('',#1670,#784);
#697=LINE('',#1673,#785);
#698=LINE('',#1675,#786);
#699=LINE('',#1677,#787);
#700=VECTOR('',#1147,1000.);
#701=VECTOR('',#1148,1000.);
#702=VECTOR('',#1149,1000.);
#703=VECTOR('',#1150,1000.);
#704=VECTOR('',#1165,1000.);
#705=VECTOR('',#1166,1000.);
#706=VECTOR('',#1167,1000.);
#707=VECTOR('',#1168,1000.);
#708=VECTOR('',#1171,1000.);
#709=VECTOR('',#1174,1000.);
#710=VECTOR('',#1177,1000.);
#711=VECTOR('',#1184,1000.);
#712=VECTOR('',#1185,1000.);
#713=VECTOR('',#1186,1000.);
#714=VECTOR('',#1189,1000.);
#715=VECTOR('',#1190,1000.);
#716=VECTOR('',#1191,1000.);
#717=VECTOR('',#1192,1000.);
#718=VECTOR('',#1195,1000.);
#719=VECTOR('',#1196,1000.);
#720=VECTOR('',#1197,1000.);
#721=VECTOR('',#1198,1000.);
#722=VECTOR('',#1203,1000.);
#723=VECTOR('',#1206,1000.);
#724=VECTOR('',#1209,1000.);
#725=VECTOR('',#1214,1000.);
#726=VECTOR('',#1215,1000.);
#727=VECTOR('',#1216,1000.);
#728=VECTOR('',#1219,1000.);
#729=VECTOR('',#1222,1000.);
#730=VECTOR('',#1225,1000.);
#731=VECTOR('',#1226,1000.);
#732=VECTOR('',#1227,1000.);
#733=VECTOR('',#1228,1000.);
#734=VECTOR('',#1229,1000.);
#735=VECTOR('',#1230,1000.);
#736=VECTOR('',#1233,1000.);
#737=VECTOR('',#1236,1000.);
#738=VECTOR('',#1239,1000.);
#739=VECTOR('',#1240,1000.);
#740=VECTOR('',#1241,1000.);
#741=VECTOR('',#1242,1000.);
#742=VECTOR('',#1243,1000.);
#743=VECTOR('',#1244,1000.);
#744=VECTOR('',#1247,1000.);
#745=VECTOR('',#1248,1000.);
#746=VECTOR('',#1249,1000.);
#747=VECTOR('',#1250,1000.);
#748=VECTOR('',#1251,1000.);
#749=VECTOR('',#1252,1000.);
#750=VECTOR('',#1255,1000.);
#751=VECTOR('',#1256,1000.);
#752=VECTOR('',#1257,1000.);
#753=VECTOR('',#1260,1000.);
#754=VECTOR('',#1261,1000.);
#755=VECTOR('',#1264,1000.);
#756=VECTOR('',#1265,1000.);
#757=VECTOR('',#1268,1000.);
#758=VECTOR('',#1269,1000.);
#759=VECTOR('',#1272,1000.);
#760=VECTOR('',#1273,1000.);
#761=VECTOR('',#1276,1000.);
#762=VECTOR('',#1279,1000.);
#763=VECTOR('',#1280,1000.);
#764=VECTOR('',#1281,1000.);
#765=VECTOR('',#1282,1000.);
#766=VECTOR('',#1285,1000.);
#767=VECTOR('',#1286,1000.);
#768=VECTOR('',#1287,1000.);
#769=VECTOR('',#1288,1000.);
#770=VECTOR('',#1289,1000.);
#771=VECTOR('',#1290,1000.);
#772=VECTOR('',#1293,1000.);
#773=VECTOR('',#1294,1000.);
#774=VECTOR('',#1295,1000.);
#775=VECTOR('',#1298,1000.);
#776=VECTOR('',#1299,1000.);
#777=VECTOR('',#1302,1000.);
#778=VECTOR('',#1303,1000.);
#779=VECTOR('',#1306,1000.);
#780=VECTOR('',#1307,1000.);
#781=VECTOR('',#1310,1000.);
#782=VECTOR('',#1311,1000.);
#783=VECTOR('',#1314,1000.);
#784=VECTOR('',#1317,1000.);
#785=VECTOR('',#1318,1000.);
#786=VECTOR('',#1319,1000.);
#787=VECTOR('',#1320,1000.);
#788=EDGE_LOOP('',(#108,#109,#110,#111));
#789=EDGE_LOOP('',(#112));
#790=EDGE_LOOP('',(#113));
#791=EDGE_LOOP('',(#114));
#792=EDGE_LOOP('',(#115));
#793=EDGE_LOOP('',(#116,#117,#118,#119));
#794=EDGE_LOOP('',(#120));
#795=EDGE_LOOP('',(#121,#122,#123,#124,#125,#126,#127,#128));
#796=EDGE_LOOP('',(#129,#130,#131,#132));
#797=EDGE_LOOP('',(#133,#134,#135,#136));
#798=EDGE_LOOP('',(#137,#138,#139,#140));
#799=EDGE_LOOP('',(#141));
#800=EDGE_LOOP('',(#142,#143,#144,#145,#146,#147,#148,#149));
#801=EDGE_LOOP('',(#150,#151,#152,#153));
#802=EDGE_LOOP('',(#154,#155,#156,#157,#158,#159,#160,#161,#162,#163,#164,
#165));
#803=EDGE_LOOP('',(#166,#167,#168,#169,#170,#171,#172,#173,#174,#175,#176,
#177));
#804=EDGE_LOOP('',(#178,#179,#180,#181,#182,#183));
#805=EDGE_LOOP('',(#184));
#806=EDGE_LOOP('',(#185,#186,#187,#188));
#807=EDGE_LOOP('',(#189,#190,#191,#192));
#808=EDGE_LOOP('',(#193,#194,#195,#196));
#809=EDGE_LOOP('',(#197,#198,#199,#200));
#810=EDGE_LOOP('',(#201,#202,#203,#204));
#811=EDGE_LOOP('',(#205,#206,#207,#208));
#812=EDGE_LOOP('',(#209,#210,#211,#212));
#813=EDGE_LOOP('',(#213,#214,#215,#216,#217,#218));
#814=EDGE_LOOP('',(#219,#220,#221,#222,#223,#224));
#815=EDGE_LOOP('',(#225));
#816=EDGE_LOOP('',(#226,#227,#228,#229));
#817=EDGE_LOOP('',(#230,#231,#232,#233));
#818=EDGE_LOOP('',(#234,#235,#236,#237));
#819=EDGE_LOOP('',(#238,#239,#240,#241));
#820=EDGE_LOOP('',(#242,#243,#244,#245));
#821=EDGE_LOOP('',(#246,#247,#248,#249));
#822=EDGE_LOOP('',(#250,#251,#252,#253));
#823=EDGE_LOOP('',(#254,#255,#256,#257,#258,#259));
#824=EDGE_LOOP('',(#260,#261,#262,#263));
#825=EDGE_LOOP('',(#264,#265,#266,#267));
#826=EDGE_LOOP('',(#268,#269,#270,#271));
#827=EDGE_LOOP('',(#272,#273,#274));
#828=EDGE_LOOP('',(#275,#276,#277,#278));
#829=EDGE_LOOP('',(#279,#280,#281,#282));
#830=EDGE_LOOP('',(#283,#284,#285,#286));
#831=EDGE_LOOP('',(#287,#288,#289));
#832=EDGE_LOOP('',(#290,#291,#292));
#833=EDGE_LOOP('',(#293,#294,#295,#296));
#834=EDGE_LOOP('',(#297,#298,#299,#300));
#835=EDGE_LOOP('',(#301,#302,#303,#304));
#836=EDGE_LOOP('',(#305,#306,#307));
#837=EDGE_LOOP('',(#308,#309,#310));
#838=EDGE_LOOP('',(#311,#312,#313,#314));
#839=EDGE_LOOP('',(#315,#316,#317,#318));
#840=EDGE_LOOP('',(#319,#320,#321,#322));
#841=EDGE_LOOP('',(#323,#324,#325,#326));
#842=EDGE_LOOP('',(#327,#328,#329));
#843=EDGE_LOOP('',(#330,#331,#332));
#844=EDGE_LOOP('',(#333,#334,#335,#336));
#845=EDGE_LOOP('',(#337,#338,#339,#340));
#846=EDGE_LOOP('',(#341,#342,#343));
#847=EDGE_LOOP('',(#344,#345,#346,#347));
#848=EDGE_LOOP('',(#348,#349,#350,#351));
#849=EDGE_LOOP('',(#352,#353,#354,#355));
#850=EDGE_LOOP('',(#356,#357,#358,#359));
#851=EDGE_LOOP('',(#360,#361,#362,#363));
#852=EDGE_LOOP('',(#364,#365,#366,#367));
#853=EDGE_LOOP('',(#368,#369,#370,#371));
#854=EDGE_LOOP('',(#372,#373,#374,#375));
#855=EDGE_LOOP('',(#376,#377,#378,#379));
#856=EDGE_LOOP('',(#380,#381,#382,#383));
#857=EDGE_LOOP('',(#384,#385,#386,#387));
#858=FACE_BOUND('',#788,.T.);
#859=FACE_BOUND('',#789,.T.);
#860=FACE_BOUND('',#790,.T.);
#861=FACE_BOUND('',#791,.T.);
#862=FACE_BOUND('',#792,.T.);
#863=FACE_BOUND('',#793,.T.);
#864=FACE_BOUND('',#794,.T.);
#865=FACE_BOUND('',#795,.T.);
#866=FACE_BOUND('',#796,.T.);
#867=FACE_BOUND('',#797,.T.);
#868=FACE_BOUND('',#798,.T.);
#869=FACE_BOUND('',#799,.T.);
#870=FACE_BOUND('',#800,.T.);
#871=FACE_BOUND('',#801,.T.);
#872=FACE_BOUND('',#802,.T.);
#873=FACE_BOUND('',#803,.T.);
#874=FACE_BOUND('',#804,.T.);
#875=FACE_BOUND('',#805,.T.);
#876=FACE_BOUND('',#806,.T.);
#877=FACE_BOUND('',#807,.T.);
#878=FACE_BOUND('',#808,.T.);
#879=FACE_BOUND('',#809,.T.);
#880=FACE_BOUND('',#810,.T.);
#881=FACE_BOUND('',#811,.T.);
#882=FACE_BOUND('',#812,.T.);
#883=FACE_BOUND('',#813,.T.);
#884=FACE_BOUND('',#814,.T.);
#885=FACE_BOUND('',#815,.T.);
#886=FACE_BOUND('',#816,.T.);
#887=FACE_BOUND('',#817,.T.);
#888=FACE_BOUND('',#818,.T.);
#889=FACE_BOUND('',#819,.T.);
#890=FACE_BOUND('',#820,.T.);
#891=FACE_BOUND('',#821,.T.);
#892=FACE_BOUND('',#822,.T.);
#893=FACE_BOUND('',#823,.T.);
#894=FACE_BOUND('',#824,.T.);
#895=FACE_BOUND('',#825,.T.);
#896=FACE_BOUND('',#826,.T.);
#897=FACE_BOUND('',#827,.T.);
#898=FACE_BOUND('',#828,.T.);
#899=FACE_BOUND('',#829,.T.);
#900=FACE_BOUND('',#830,.T.);
#901=FACE_BOUND('',#831,.T.);
#902=FACE_BOUND('',#832,.T.);
#903=FACE_BOUND('',#833,.T.);
#904=FACE_BOUND('',#834,.T.);
#905=FACE_BOUND('',#835,.T.);
#906=FACE_BOUND('',#836,.T.);
#907=FACE_BOUND('',#837,.T.);
#908=FACE_BOUND('',#838,.T.);
#909=FACE_BOUND('',#839,.T.);
#910=FACE_BOUND('',#840,.T.);
#911=FACE_BOUND('',#841,.T.);
#912=FACE_BOUND('',#842,.T.);
#913=FACE_BOUND('',#843,.T.);
#914=FACE_BOUND('',#844,.T.);
#915=FACE_BOUND('',#845,.T.);
#916=FACE_BOUND('',#846,.T.);
#917=FACE_BOUND('',#847,.T.);
#918=FACE_BOUND('',#848,.T.);
#919=FACE_BOUND('',#849,.T.);
#920=FACE_BOUND('',#850,.T.);
#921=FACE_BOUND('',#851,.T.);
#922=FACE_BOUND('',#852,.T.);
#923=FACE_BOUND('',#853,.T.);
#924=FACE_BOUND('',#854,.T.);
#925=FACE_BOUND('',#855,.T.);
#926=FACE_BOUND('',#856,.T.);
#927=FACE_BOUND('',#857,.T.);
#928=PLANE('',#1029);
#929=PLANE('',#1036);
#930=PLANE('',#1037);
#931=PLANE('',#1042);
#932=PLANE('',#1043);
#933=PLANE('',#1044);
#934=PLANE('',#1045);
#935=PLANE('',#1050);
#936=PLANE('',#1051);
#937=PLANE('',#1054);
#938=PLANE('',#1057);
#939=PLANE('',#1058);
#940=PLANE('',#1059);
#941=PLANE('',#1060);
#942=PLANE('',#1061);
#943=PLANE('',#1062);
#944=PLANE('',#1063);
#945=PLANE('',#1064);
#946=PLANE('',#1065);
#947=PLANE('',#1066);
#948=PLANE('',#1067);
#949=PLANE('',#1068);
#950=PLANE('',#1069);
#951=PLANE('',#1070);
#952=PLANE('',#1071);
#953=PLANE('',#1072);
#954=ADVANCED_FACE('',(#858),#928,.F.);
#955=ADVANCED_FACE('',(#859,#860),#84,.F.);
#956=ADVANCED_FACE('',(#861,#862),#85,.F.);
#957=ADVANCED_FACE('',(#863),#929,.F.);
#958=ADVANCED_FACE('',(#864,#865),#930,.F.);
#959=ADVANCED_FACE('',(#866),#931,.F.);
#960=ADVANCED_FACE('',(#867),#932,.F.);
#961=ADVANCED_FACE('',(#868),#933,.F.);
#962=ADVANCED_FACE('',(#869,#870),#934,.F.);
#963=ADVANCED_FACE('',(#871),#935,.F.);
#964=ADVANCED_FACE('',(#872),#936,.T.);
#965=ADVANCED_FACE('',(#873),#937,.F.);
#966=ADVANCED_FACE('',(#874,#875),#938,.T.);
#967=ADVANCED_FACE('',(#876),#939,.F.);
#968=ADVANCED_FACE('',(#877),#940,.F.);
#969=ADVANCED_FACE('',(#878),#941,.F.);
#970=ADVANCED_FACE('',(#879),#942,.F.);
#971=ADVANCED_FACE('',(#880),#943,.F.);
#972=ADVANCED_FACE('',(#881),#944,.F.);
#973=ADVANCED_FACE('',(#882,#883),#945,.F.);
#974=ADVANCED_FACE('',(#884,#885),#946,.T.);
#975=ADVANCED_FACE('',(#886),#947,.F.);
#976=ADVANCED_FACE('',(#887),#948,.F.);
#977=ADVANCED_FACE('',(#888),#949,.F.);
#978=ADVANCED_FACE('',(#889),#950,.F.);
#979=ADVANCED_FACE('',(#890),#951,.F.);
#980=ADVANCED_FACE('',(#891),#952,.F.);
#981=ADVANCED_FACE('',(#892,#893),#953,.F.);
#982=ADVANCED_FACE('',(#894),#86,.F.);
#983=ADVANCED_FACE('',(#895),#87,.F.);
#984=ADVANCED_FACE('',(#896),#88,.T.);
#985=ADVANCED_FACE('',(#897),#24,.T.);
#986=ADVANCED_FACE('',(#898),#89,.T.);
#987=ADVANCED_FACE('',(#899),#90,.T.);
#988=ADVANCED_FACE('',(#900),#91,.T.);
#989=ADVANCED_FACE('',(#901),#25,.T.);
#990=ADVANCED_FACE('',(#902),#26,.T.);
#991=ADVANCED_FACE('',(#903),#92,.T.);
#992=ADVANCED_FACE('',(#904),#93,.T.);
#993=ADVANCED_FACE('',(#905),#94,.T.);
#994=ADVANCED_FACE('',(#906),#27,.T.);
#995=ADVANCED_FACE('',(#907),#28,.T.);
#996=ADVANCED_FACE('',(#908),#95,.T.);
#997=ADVANCED_FACE('',(#909),#96,.T.);
#998=ADVANCED_FACE('',(#910),#97,.T.);
#999=ADVANCED_FACE('',(#911),#98,.T.);
#1000=ADVANCED_FACE('',(#912),#29,.T.);
#1001=ADVANCED_FACE('',(#913),#30,.T.);
#1002=ADVANCED_FACE('',(#914),#99,.T.);
#1003=ADVANCED_FACE('',(#915),#100,.T.);
#1004=ADVANCED_FACE('',(#916),#31,.T.);
#1005=ADVANCED_FACE('',(#917),#101,.T.);
#1006=ADVANCED_FACE('',(#918),#102,.T.);
#1007=ADVANCED_FACE('',(#919),#20,.T.);
#1008=ADVANCED_FACE('',(#920),#103,.T.);
#1009=ADVANCED_FACE('',(#921),#21,.T.);
#1010=ADVANCED_FACE('',(#922),#104,.T.);
#1011=ADVANCED_FACE('',(#923),#105,.T.);
#1012=ADVANCED_FACE('',(#924),#22,.T.);
#1013=ADVANCED_FACE('',(#925),#106,.T.);
#1014=ADVANCED_FACE('',(#926),#23,.T.);
#1015=ADVANCED_FACE('',(#927),#107,.T.);
#1016=CLOSED_SHELL('',(#954,#955,#956,#957,#958,#959,#960,#961,#962,#963,
#964,#965,#966,#967,#968,#969,#970,#971,#972,#973,#974,#975,#976,#977,#978,
#979,#980,#981,#982,#983,#984,#985,#986,#987,#988,#989,#990,#991,#992,#993,
#994,#995,#996,#997,#998,#999,#1000,#1001,#1002,#1003,#1004,#1005,#1006,
#1007,#1008,#1009,#1010,#1011,#1012,#1013,#1014,#1015));
#1017=STYLED_ITEM('',(#1018),#1025);
#1018=PRESENTATION_STYLE_ASSIGNMENT((#1019));
#1019=SURFACE_STYLE_USAGE(.BOTH.,#1020);
#1020=SURFACE_SIDE_STYLE('',(#1021));
#1021=SURFACE_STYLE_FILL_AREA(#1022);
#1022=FILL_AREA_STYLE('',(#1023));
#1023=FILL_AREA_STYLE_COLOUR('',#1024);
#1024=COLOUR_RGB('',0.506983280181885,0.531564235687256,0.550000011920929);
#1025=MANIFOLD_SOLID_BREP('',#1016);
#1026=SHAPE_DEFINITION_REPRESENTATION(#1754,#1027);
#1027=SHAPE_REPRESENTATION('SEG-P-014-00',(#1028),#1749);
#1028=AXIS2_PLACEMENT_3D('',#1461,#1143,#1144);
#1029=AXIS2_PLACEMENT_3D('',#1462,#1145,#1146);
#1030=AXIS2_PLACEMENT_3D('',#1471,#1151,#1152);
#1031=AXIS2_PLACEMENT_3D('',#1472,#1153,#1154);
#1032=AXIS2_PLACEMENT_3D('',#1474,#1155,#1156);
#1033=AXIS2_PLACEMENT_3D('',#1476,#1157,#1158);
#1034=AXIS2_PLACEMENT_3D('',#1477,#1159,#1160);
#1035=AXIS2_PLACEMENT_3D('',#1479,#1161,#1162);
#1036=AXIS2_PLACEMENT_3D('',#1481,#1163,#1164);
#1037=AXIS2_PLACEMENT_3D('',#1490,#1169,#1170);
#1038=AXIS2_PLACEMENT_3D('',#1494,#1172,#1173);
#1039=AXIS2_PLACEMENT_3D('',#1498,#1175,#1176);
#1040=AXIS2_PLACEMENT_3D('',#1502,#1178,#1179);
#1041=AXIS2_PLACEMENT_3D('',#1503,#1180,#1181);
#1042=AXIS2_PLACEMENT_3D('',#1504,#1182,#1183);
#1043=AXIS2_PLACEMENT_3D('',#1510,#1187,#1188);
#1044=AXIS2_PLACEMENT_3D('',#1519,#1193,#1194);
#1045=AXIS2_PLACEMENT_3D('',#1528,#1199,#1200);
#1046=AXIS2_PLACEMENT_3D('',#1529,#1201,#1202);
#1047=AXIS2_PLACEMENT_3D('',#1533,#1204,#1205);
#1048=AXIS2_PLACEMENT_3D('',#1537,#1207,#1208);
#1049=AXIS2_PLACEMENT_3D('',#1541,#1210,#1211);
#1050=AXIS2_PLACEMENT_3D('',#1542,#1212,#1213);
#1051=AXIS2_PLACEMENT_3D('',#1548,#1217,#1218);
#1052=AXIS2_PLACEMENT_3D('',#1551,#1220,#1221);
#1053=AXIS2_PLACEMENT_3D('',#1555,#1223,#1224);
#1054=AXIS2_PLACEMENT_3D('',#1567,#1231,#1232);
#1055=AXIS2_PLACEMENT_3D('',#1570,#1234,#1235);
#1056=AXIS2_PLACEMENT_3D('',#1574,#1237,#1238);
#1057=AXIS2_PLACEMENT_3D('',#1586,#1245,#1246);
#1058=AXIS2_PLACEMENT_3D('',#1599,#1253,#1254);
#1059=AXIS2_PLACEMENT_3D('',#1605,#1258,#1259);
#1060=AXIS2_PLACEMENT_3D('',#1609,#1262,#1263);
#1061=AXIS2_PLACEMENT_3D('',#1613,#1266,#1267);
#1062=AXIS2_PLACEMENT_3D('',#1617,#1270,#1271);
#1063=AXIS2_PLACEMENT_3D('',#1621,#1274,#1275);
#1064=AXIS2_PLACEMENT_3D('',#1623,#1277,#1278);
#1065=AXIS2_PLACEMENT_3D('',#1632,#1283,#1284);
#1066=AXIS2_PLACEMENT_3D('',#1645,#1291,#1292);
#1067=AXIS2_PLACEMENT_3D('',#1651,#1296,#1297);
#1068=AXIS2_PLACEMENT_3D('',#1655,#1300,#1301);
#1069=AXIS2_PLACEMENT_3D('',#1659,#1304,#1305);
#1070=AXIS2_PLACEMENT_3D('',#1663,#1308,#1309);
#1071=AXIS2_PLACEMENT_3D('',#1667,#1312,#1313);
#1072=AXIS2_PLACEMENT_3D('',#1669,#1315,#1316);
#1073=AXIS2_PLACEMENT_3D('',#1678,#1321,#1322);
#1074=AXIS2_PLACEMENT_3D('',#1679,#1323,#1324);
#1075=AXIS2_PLACEMENT_3D('',#1680,#1325,#1326);
#1076=AXIS2_PLACEMENT_3D('',#1681,#1327,#1328);
#1077=AXIS2_PLACEMENT_3D('',#1682,#1329,#1330);
#1078=AXIS2_PLACEMENT_3D('',#1683,#1331,#1332);
#1079=AXIS2_PLACEMENT_3D('',#1684,#1333,#1334);
#1080=AXIS2_PLACEMENT_3D('',#1685,#1335,#1336);
#1081=AXIS2_PLACEMENT_3D('',#1686,#1337,#1338);
#1082=AXIS2_PLACEMENT_3D('',#1687,#1339,#1340);
#1083=AXIS2_PLACEMENT_3D('',#1688,#1341,#1342);
#1084=AXIS2_PLACEMENT_3D('',#1689,#1343,#1344);
#1085=AXIS2_PLACEMENT_3D('',#1690,#1345,#1346);
#1086=AXIS2_PLACEMENT_3D('',#1691,#1347,#1348);
#1087=AXIS2_PLACEMENT_3D('',#1692,#1349,#1350);
#1088=AXIS2_PLACEMENT_3D('',#1693,#1351,#1352);
#1089=AXIS2_PLACEMENT_3D('',#1694,#1353,#1354);
#1090=AXIS2_PLACEMENT_3D('',#1695,#1355,#1356);
#1091=AXIS2_PLACEMENT_3D('',#1696,#1357,#1358);
#1092=AXIS2_PLACEMENT_3D('',#1697,#1359,#1360);
#1093=AXIS2_PLACEMENT_3D('',#1698,#1361,#1362);
#1094=AXIS2_PLACEMENT_3D('',#1699,#1363,#1364);
#1095=AXIS2_PLACEMENT_3D('',#1700,#1365,#1366);
#1096=AXIS2_PLACEMENT_3D('',#1701,#1367,#1368);
#1097=AXIS2_PLACEMENT_3D('',#1702,#1369,#1370);
#1098=AXIS2_PLACEMENT_3D('',#1703,#1371,#1372);
#1099=AXIS2_PLACEMENT_3D('',#1704,#1373,#1374);
#1100=AXIS2_PLACEMENT_3D('',#1705,#1375,#1376);
#1101=AXIS2_PLACEMENT_3D('',#1706,#1377,#1378);
#1102=AXIS2_PLACEMENT_3D('',#1707,#1379,#1380);
#1103=AXIS2_PLACEMENT_3D('',#1708,#1381,#1382);
#1104=AXIS2_PLACEMENT_3D('',#1709,#1383,#1384);
#1105=AXIS2_PLACEMENT_3D('',#1710,#1385,#1386);
#1106=AXIS2_PLACEMENT_3D('',#1711,#1387,#1388);
#1107=AXIS2_PLACEMENT_3D('',#1712,#1389,#1390);
#1108=AXIS2_PLACEMENT_3D('',#1713,#1391,#1392);
#1109=AXIS2_PLACEMENT_3D('',#1714,#1393,#1394);
#1110=AXIS2_PLACEMENT_3D('',#1715,#1395,#1396);
#1111=AXIS2_PLACEMENT_3D('',#1716,#1397,#1398);
#1112=AXIS2_PLACEMENT_3D('',#1717,#1399,#1400);
#1113=AXIS2_PLACEMENT_3D('',#1718,#1401,#1402);
#1114=AXIS2_PLACEMENT_3D('',#1719,#1403,#1404);
#1115=AXIS2_PLACEMENT_3D('',#1720,#1405,#1406);
#1116=AXIS2_PLACEMENT_3D('',#1721,#1407,#1408);
#1117=AXIS2_PLACEMENT_3D('',#1722,#1409,#1410);
#1118=AXIS2_PLACEMENT_3D('',#1723,#1411,#1412);
#1119=AXIS2_PLACEMENT_3D('',#1724,#1413,#1414);
#1120=AXIS2_PLACEMENT_3D('',#1725,#1415,#1416);
#1121=AXIS2_PLACEMENT_3D('',#1726,#1417,#1418);
#1122=AXIS2_PLACEMENT_3D('',#1727,#1419,#1420);
#1123=AXIS2_PLACEMENT_3D('',#1728,#1421,#1422);
#1124=AXIS2_PLACEMENT_3D('',#1729,#1423,#1424);
#1125=AXIS2_PLACEMENT_3D('',#1730,#1425,#1426);
#1126=AXIS2_PLACEMENT_3D('',#1731,#1427,#1428);
#1127=AXIS2_PLACEMENT_3D('',#1732,#1429,#1430);
#1128=AXIS2_PLACEMENT_3D('',#1733,#1431,#1432);
#1129=AXIS2_PLACEMENT_3D('',#1734,#1433,#1434);
#1130=AXIS2_PLACEMENT_3D('',#1735,#1435,#1436);
#1131=AXIS2_PLACEMENT_3D('',#1736,#1437,#1438);
#1132=AXIS2_PLACEMENT_3D('',#1737,#1439,#1440);
#1133=AXIS2_PLACEMENT_3D('',#1738,#1441,#1442);
#1134=AXIS2_PLACEMENT_3D('',#1739,#1443,#1444);
#1135=AXIS2_PLACEMENT_3D('',#1740,#1445,#1446);
#1136=AXIS2_PLACEMENT_3D('',#1741,#1447,#1448);
#1137=AXIS2_PLACEMENT_3D('',#1742,#1449,#1450);
#1138=AXIS2_PLACEMENT_3D('',#1743,#1451,#1452);
#1139=AXIS2_PLACEMENT_3D('',#1744,#1453,#1454);
#1140=AXIS2_PLACEMENT_3D('',#1745,#1455,#1456);
#1141=AXIS2_PLACEMENT_3D('',#1746,#1457,#1458);
#1142=AXIS2_PLACEMENT_3D('',#1747,#1459,#1460);
#1143=DIRECTION('',(0.,0.,1.));
#1144=DIRECTION('',(1.,0.,0.));
#1145=DIRECTION('',(0.,0.,-1.));
#1146=DIRECTION('',(-1.,0.,0.));
#1147=DIRECTION('',(-1.,0.,0.));
#1148=DIRECTION('',(0.,-1.,0.));
#1149=DIRECTION('',(-1.,0.,0.));
#1150=DIRECTION('',(0.,-1.,0.));
#1151=DIRECTION('',(0.,0.,-1.));
#1152=DIRECTION('',(-1.,0.,0.));
#1153=DIRECTION('',(0.,0.,-1.));
#1154=DIRECTION('',(-1.,0.,0.));
#1155=DIRECTION('',(1.11343952038524E-16,0.,1.));
#1156=DIRECTION('',(1.,0.,-1.11343952038524E-16));
#1157=DIRECTION('',(0.,0.,-1.));
#1158=DIRECTION('',(-1.,0.,0.));
#1159=DIRECTION('',(0.,0.,-1.));
#1160=DIRECTION('',(1.,0.,0.));
#1161=DIRECTION('',(-1.11343952038524E-16,0.,1.));
#1162=DIRECTION('',(1.,0.,1.11343952038524E-16));
#1163=DIRECTION('',(1.,0.,0.));
#1164=DIRECTION('',(0.,0.,-1.));
#1165=DIRECTION('',(0.,1.,0.));
#1166=DIRECTION('',(0.,0.,-1.));
#1167=DIRECTION('',(0.,-1.,0.));
#1168=DIRECTION('',(0.,0.,-1.));
#1169=DIRECTION('',(0.,0.,1.));
#1170=DIRECTION('',(1.,0.,0.));
#1171=DIRECTION('',(1.,0.,0.));
#1172=DIRECTION('',(0.,0.,1.));
#1173=DIRECTION('',(1.,0.,0.));
#1174=DIRECTION('',(0.,1.,0.));
#1175=DIRECTION('',(0.,0.,1.));
#1176=DIRECTION('',(-1.,0.,0.));
#1177=DIRECTION('',(1.,0.,0.));
#1178=DIRECTION('',(0.,0.,1.));
#1179=DIRECTION('',(1.,0.,0.));
#1180=DIRECTION('',(0.,0.,1.));
#1181=DIRECTION('',(1.,0.,0.));
#1182=DIRECTION('',(-0.999133073092352,0.,0.0416305447121814));
#1183=DIRECTION('',(0.0416305447121814,0.,0.999133073092352));
#1184=DIRECTION('',(0.0416305447121814,0.,0.999133073092352));
#1185=DIRECTION('',(0.,1.,0.));
#1186=DIRECTION('',(0.0416305447121814,0.,0.999133073092352));
#1187=DIRECTION('',(0.,0.,1.));
#1188=DIRECTION('',(1.,0.,0.));
#1189=DIRECTION('',(0.,1.,0.));
#1190=DIRECTION('',(1.,0.,0.));
#1191=DIRECTION('',(0.,1.,0.));
#1192=DIRECTION('',(1.,0.,0.));
#1193=DIRECTION('',(0.999133073092352,0.,0.0416305447121814));
#1194=DIRECTION('',(0.0416305447121814,0.,-0.999133073092352));
#1195=DIRECTION('',(0.,1.,0.));
#1196=DIRECTION('',(0.0416305447121814,0.,-0.999133073092352));
#1197=DIRECTION('',(0.,1.,0.));
#1198=DIRECTION('',(0.0416305447121814,0.,-0.999133073092352));
#1199=DIRECTION('',(0.,0.,1.));
#1200=DIRECTION('',(1.,0.,0.));
#1201=DIRECTION('',(0.,0.,1.));
#1202=DIRECTION('',(1.,0.,0.));
#1203=DIRECTION('',(1.,0.,0.));
#1204=DIRECTION('',(0.,0.,1.));
#1205=DIRECTION('',(1.,0.,0.));
#1206=DIRECTION('',(0.,1.,0.));
#1207=DIRECTION('',(0.,0.,1.));
#1208=DIRECTION('',(1.,0.,0.));
#1209=DIRECTION('',(1.,0.,0.));
#1210=DIRECTION('',(0.,0.,1.));
#1211=DIRECTION('',(-1.,0.,0.));
#1212=DIRECTION('',(-1.,0.,0.));
#1213=DIRECTION('',(0.,0.,1.));
#1214=DIRECTION('',(0.,-1.,0.));
#1215=DIRECTION('',(0.,0.,1.));
#1216=DIRECTION('',(0.,0.,1.));
#1217=DIRECTION('',(0.,-1.,0.));
#1218=DIRECTION('',(0.,0.,-1.));
#1219=DIRECTION('',(0.0416305447121814,0.,0.999133073092352));
#1220=DIRECTION('',(0.,-1.,0.));
#1221=DIRECTION('',(0.,0.,-1.));
#1222=DIRECTION('',(1.,0.,0.));
#1223=DIRECTION('',(0.,-1.,0.));
#1224=DIRECTION('',(0.,0.,-1.));
#1225=DIRECTION('',(0.0416305447121814,0.,-0.999133073092352));
#1226=DIRECTION('',(0.,0.,1.));
#1227=DIRECTION('',(0.883787916347062,0.,-0.467887720419033));
#1228=DIRECTION('',(-1.,0.,0.));
#1229=DIRECTION('',(0.883787916347062,0.,0.467887720419033));
#1230=DIRECTION('',(0.,0.,-1.));
#1231=DIRECTION('',(0.,-1.,0.));
#1232=DIRECTION('',(0.,0.,-1.));
#1233=DIRECTION('',(0.0416305447121814,0.,-0.999133073092352));
#1234=DIRECTION('',(0.,-1.,0.));
#1235=DIRECTION('',(0.,0.,-1.));
#1236=DIRECTION('',(1.,0.,0.));
#1237=DIRECTION('',(0.,-1.,0.));
#1238=DIRECTION('',(0.,0.,-1.));
#1239=DIRECTION('',(0.0416305447121814,0.,0.999133073092352));
#1240=DIRECTION('',(0.,0.,-1.));
#1241=DIRECTION('',(0.883787916347062,0.,0.467887720419033));
#1242=DIRECTION('',(-1.,0.,0.));
#1243=DIRECTION('',(0.883787916347062,0.,-0.467887720419033));
#1244=DIRECTION('',(0.,0.,1.));
#1245=DIRECTION('',(-1.11343952038524E-16,0.,1.));
#1246=DIRECTION('',(1.,0.,1.11343952038524E-16));
#1247=DIRECTION('',(-1.,-4.09722163291953E-16,-1.11343952038524E-16));
#1248=DIRECTION('',(-0.500000000000001,-0.866025403784438,-5.56719760192621E-17));
#1249=DIRECTION('',(0.499999999999998,-0.86602540378444,5.56719760192617E-17));
#1250=DIRECTION('',(1.,-1.22916648987586E-15,1.11343952038524E-16));
#1251=DIRECTION('',(0.500000000000001,0.866025403784438,5.56719760192621E-17));
#1252=DIRECTION('',(-0.5,0.866025403784439,-5.56719760192619E-17));
#1253=DIRECTION('',(-4.09722163291953E-16,1.,-4.56200848986995E-32));
#1254=DIRECTION('',(-1.,-4.09722163291953E-16,0.));
#1255=DIRECTION('',(-1.11343952038524E-16,0.,1.));
#1256=DIRECTION('',(-0.883787916347062,-3.62107496977006E-16,-0.467887720419033));
#1257=DIRECTION('',(-1.11343952038524E-16,0.,1.));
#1258=DIRECTION('',(-0.866025403784438,0.500000000000001,-9.64266910231178E-17));
#1259=DIRECTION('',(-0.500000000000001,-0.866025403784438,0.));
#1260=DIRECTION('',(-0.483352613930757,-0.837191285299293,-0.255892560316283));
#1261=DIRECTION('',(-1.11343952038524E-16,0.,1.));
#1262=DIRECTION('',(-0.86602540378444,-0.499999999999998,-9.6426691023118E-17));
#1263=DIRECTION('',(0.499999999999998,-0.86602540378444,0.));
#1264=DIRECTION('',(0.483352613930754,-0.837191285299295,0.255892560316282));
#1265=DIRECTION('',(-1.11343952038524E-16,0.,1.));
#1266=DIRECTION('',(-1.22916648987586E-15,-1.,-1.36860254696098E-31));
#1267=DIRECTION('',(1.,-1.22916648987586E-15,0.));
#1268=DIRECTION('',(0.883787916347062,-1.08632249093102E-15,0.467887720419033));
#1269=DIRECTION('',(-1.11343952038524E-16,0.,1.));
#1270=DIRECTION('',(0.866025403784438,-0.500000000000001,9.64266910231178E-17));
#1271=DIRECTION('',(0.500000000000001,0.866025403784438,0.));
#1272=DIRECTION('',(0.483352613930757,0.837191285299293,0.255892560316283));
#1273=DIRECTION('',(-1.11343952038524E-16,0.,1.));
#1274=DIRECTION('',(0.866025403784439,0.5,9.64266910231179E-17));
#1275=DIRECTION('',(-0.5,0.866025403784439,0.));
#1276=DIRECTION('',(-0.483352613930756,0.837191285299294,-0.255892560316282));
#1277=DIRECTION('',(0.467887720419033,0.,-0.883787916347062));
#1278=DIRECTION('',(-0.883787916347062,0.,-0.467887720419033));
#1279=DIRECTION('',(0.883787916347062,0.,0.467887720419033));
#1280=DIRECTION('',(0.,-1.,0.));
#1281=DIRECTION('',(0.883787916347062,0.,0.467887720419033));
#1282=DIRECTION('',(0.,-1.,0.));
#1283=DIRECTION('',(1.11343952038524E-16,0.,1.));
#1284=DIRECTION('',(1.,0.,-1.11343952038524E-16));
#1285=DIRECTION('',(-0.500000000000001,0.866025403784438,5.56719760192621E-17));
#1286=DIRECTION('',(-1.,4.09722163291953E-16,1.11343952038524E-16));
#1287=DIRECTION('',(-0.5,-0.866025403784439,5.56719760192619E-17));
#1288=DIRECTION('',(0.500000000000001,-0.866025403784438,-5.56719760192621E-17));
#1289=DIRECTION('',(1.,1.22916648987586E-15,-1.11343952038524E-16));
#1290=DIRECTION('',(0.499999999999998,0.86602540378444,-5.56719760192617E-17));
#1291=DIRECTION('',(0.866025403784438,0.500000000000001,-9.64266910231178E-17));
#1292=DIRECTION('',(-0.500000000000001,0.866025403784438,0.));
#1293=DIRECTION('',(1.11343952038524E-16,0.,1.));
#1294=DIRECTION('',(-0.483352613930757,0.837191285299293,0.255892560316283));
#1295=DIRECTION('',(1.11343952038524E-16,0.,1.));
#1296=DIRECTION('',(4.09722163291953E-16,1.,-4.56200848986995E-32));
#1297=DIRECTION('',(-1.,4.09722163291953E-16,0.));
#1298=DIRECTION('',(-0.883787916347062,3.62107496977006E-16,0.467887720419033));
#1299=DIRECTION('',(1.11343952038524E-16,0.,1.));
#1300=DIRECTION('',(-0.866025403784439,0.5,9.64266910231179E-17));
#1301=DIRECTION('',(-0.5,-0.866025403784439,0.));
#1302=DIRECTION('',(-0.483352613930756,-0.837191285299294,0.255892560316282));
#1303=DIRECTION('',(1.11343952038524E-16,0.,1.));
#1304=DIRECTION('',(-0.866025403784438,-0.500000000000001,9.64266910231178E-17));
#1305=DIRECTION('',(0.500000000000001,-0.866025403784438,0.));
#1306=DIRECTION('',(0.483352613930757,-0.837191285299293,-0.255892560316283));
#1307=DIRECTION('',(1.11343952038524E-16,0.,1.));
#1308=DIRECTION('',(1.22916648987586E-15,-1.,-1.36860254696098E-31));
#1309=DIRECTION('',(1.,1.22916648987586E-15,0.));
#1310=DIRECTION('',(0.883787916347062,1.08632249093102E-15,-0.467887720419033));
#1311=DIRECTION('',(1.11343952038524E-16,0.,1.));
#1312=DIRECTION('',(0.86602540378444,-0.499999999999998,-9.6426691023118E-17));
#1313=DIRECTION('',(0.499999999999998,0.86602540378444,0.));
#1314=DIRECTION('',(0.483352613930754,0.837191285299295,-0.255892560316282));
#1315=DIRECTION('',(-0.467887720419033,0.,-0.883787916347062));
#1316=DIRECTION('',(-0.883787916347062,0.,0.467887720419033));
#1317=DIRECTION('',(0.883787916347062,0.,-0.467887720419033));
#1318=DIRECTION('',(0.,-1.,0.));
#1319=DIRECTION('',(0.883787916347062,0.,-0.467887720419033));
#1320=DIRECTION('',(0.,-1.,0.));
#1321=DIRECTION('',(0.,-1.,0.));
#1322=DIRECTION('',(0.,0.,-1.));
#1323=DIRECTION('',(0.,-1.,0.));
#1324=DIRECTION('',(0.,0.,-1.));
#1325=DIRECTION('',(0.,-1.,0.));
#1326=DIRECTION('',(0.,0.,-1.));
#1327=DIRECTION('',(0.,-1.,0.));
#1328=DIRECTION('',(0.,0.,-1.));
#1329=DIRECTION('',(0.,-1.,0.));
#1330=DIRECTION('',(0.,0.,-1.));
#1331=DIRECTION('',(0.,-1.,0.));
#1332=DIRECTION('',(0.,0.,-1.));
#1333=DIRECTION('',(0.,0.,-1.));
#1334=DIRECTION('',(-1.,0.,0.));
#1335=DIRECTION('',(5.20417042793042E-15,0.,1.));
#1336=DIRECTION('',(1.,0.,-5.20417042793042E-15));
#1337=DIRECTION('',(0.,0.,1.));
#1338=DIRECTION('',(1.,0.,0.));
#1339=DIRECTION('',(-0.883787916347063,-2.4349674381965E-15,-0.467887720419031));
#1340=DIRECTION('',(-0.467887720419031,0.,0.883787916347063));
#1341=DIRECTION('',(0.,1.,1.9628277824242E-15));
#1342=DIRECTION('',(0.,-1.9628277824242E-15,1.));
#1343=DIRECTION('',(0.,0.,1.));
#1344=DIRECTION('',(1.,0.,0.));
#1345=DIRECTION('',(0.,1.73472347597681E-15,1.));
#1346=DIRECTION('',(0.,-1.,1.73472347597681E-15));
#1347=DIRECTION('',(0.,-1.,0.));
#1348=DIRECTION('',(0.,0.,-1.));
#1349=DIRECTION('',(-6.93889390390722E-15,-1.,-3.67353206677439E-15));
#1350=DIRECTION('',(1.,-6.93889390390722E-15,0.));
#1351=DIRECTION('',(0.883787916347062,0.,0.467887720419033));
#1352=DIRECTION('',(0.467887720419033,0.,-0.883787916347062));
#1353=DIRECTION('',(0.883787916347057,0.,0.467887720419042));
#1354=DIRECTION('',(0.467887720419042,0.,-0.883787916347057));
#1355=DIRECTION('',(0.,0.,1.));
#1356=DIRECTION('',(1.,0.,0.));
#1357=DIRECTION('',(-0.883787916347062,0.,-0.467887720419032));
#1358=DIRECTION('',(-0.467887720419032,0.,0.883787916347062));
#1359=DIRECTION('',(0.,0.,1.));
#1360=DIRECTION('',(1.,0.,0.));
#1361=DIRECTION('',(-1.,1.04083408558609E-14,0.));
#1362=DIRECTION('',(-1.04083408558609E-14,-1.,0.));
#1363=DIRECTION('',(-3.27669989906729E-15,1.,-1.73472347597681E-15));
#1364=DIRECTION('',(-1.,-3.27669989906729E-15,0.));
#1365=DIRECTION('',(-0.883787916347062,0.,-0.467887720419033));
#1366=DIRECTION('',(-0.467887720419033,0.,0.883787916347062));
#1367=DIRECTION('',(0.883787916347061,-6.13251058508754E-15,0.467887720419034));
#1368=DIRECTION('',(0.467887720419034,0.,-0.883787916347061));
#1369=DIRECTION('',(0.,-1.,0.));
#1370=DIRECTION('',(0.,0.,-1.));
#1371=DIRECTION('',(1.48302543560939E-14,-1.,0.));
#1372=DIRECTION('',(1.,1.48302543560939E-14,0.));
#1373=DIRECTION('',(-1.,0.,0.));
#1374=DIRECTION('',(0.,0.,1.));
#1375=DIRECTION('',(1.,0.,3.46944695195361E-15));
#1376=DIRECTION('',(3.46944695195361E-15,0.,-1.));
#1377=DIRECTION('',(0.,0.,1.));
#1378=DIRECTION('',(1.,0.,0.));
#1379=DIRECTION('',(-1.,0.,6.93889390390722E-15));
#1380=DIRECTION('',(6.93889390390722E-15,0.,1.));
#1381=DIRECTION('',(0.,0.,1.));
#1382=DIRECTION('',(1.,0.,0.));
#1383=DIRECTION('',(-0.883787916347061,3.06625529254375E-15,0.467887720419034));
#1384=DIRECTION('',(0.467887720419034,0.,0.883787916347061));
#1385=DIRECTION('',(3.70756358902348E-15,1.,0.));
#1386=DIRECTION('',(-1.,3.70756358902348E-15,0.));
#1387=DIRECTION('',(1.,0.,0.));
#1388=DIRECTION('',(0.,0.,-1.));
#1389=DIRECTION('',(1.,0.,0.));
#1390=DIRECTION('',(0.,0.,-1.));
#1391=DIRECTION('',(0.,-1.,0.));
#1392=DIRECTION('',(0.,0.,-1.));
#1393=DIRECTION('',(-1.31067995962692E-14,-1.,6.93889390390722E-15));
#1394=DIRECTION('',(1.,-1.31067995962692E-14,0.));
#1395=DIRECTION('',(0.883787916347062,0.,-0.467887720419033));
#1396=DIRECTION('',(-0.467887720419033,0.,-0.883787916347062));
#1397=DIRECTION('',(0.883787916347063,0.,-0.467887720419031));
#1398=DIRECTION('',(-0.467887720419031,0.,-0.883787916347063));
#1399=DIRECTION('',(0.,0.,1.));
#1400=DIRECTION('',(1.,0.,0.));
#1401=DIRECTION('',(0.,-1.73472347597681E-15,1.));
#1402=DIRECTION('',(0.,-1.,-1.73472347597681E-15));
#1403=DIRECTION('',(0.,0.,1.));
#1404=DIRECTION('',(1.,0.,0.));
#1405=DIRECTION('',(-0.883787916347061,0.,0.467887720419034));
#1406=DIRECTION('',(0.467887720419034,0.,0.883787916347061));
#1407=DIRECTION('',(0.,0.,1.));
#1408=DIRECTION('',(1.,0.,0.));
#1409=DIRECTION('',(-1.7347234759768E-15,1.,9.18383016693598E-16));
#1410=DIRECTION('',(-1.,-1.7347234759768E-15,0.));
#1411=DIRECTION('',(-0.883787916347062,0.,0.467887720419033));
#1412=DIRECTION('',(0.467887720419033,0.,0.883787916347062));
#1413=DIRECTION('',(0.883787916347063,8.11655812732172E-16,-0.467887720419031));
#1414=DIRECTION('',(-0.467887720419031,0.,-0.883787916347063));
#1415=DIRECTION('',(0.,-1.,0.));
#1416=DIRECTION('',(0.,0.,-1.));
#1417=DIRECTION('',(0.,-1.,-7.85131112969679E-15));
#1418=DIRECTION('',(0.,7.85131112969679E-15,-1.));
#1419=DIRECTION('',(0.,0.,1.));
#1420=DIRECTION('',(1.,0.,0.));
#1421=DIRECTION('',(0.,0.,1.));
#1422=DIRECTION('',(1.,0.,0.));
#1423=DIRECTION('',(0.,0.,-1.));
#1424=DIRECTION('',(-1.,0.,0.));
#1425=DIRECTION('',(-0.0416305447121814,0.,0.999133073092352));
#1426=DIRECTION('',(0.999133073092352,0.,0.0416305447121814));
#1427=DIRECTION('',(-0.0416305447121808,1.44434966459844E-16,0.999133073092352));
#1428=DIRECTION('',(0.999133073092352,0.,0.0416305447121808));
#1429=DIRECTION('',(0.,-1.,0.));
#1430=DIRECTION('',(0.,0.,-1.));
#1431=DIRECTION('',(-1.,0.,0.));
#1432=DIRECTION('',(0.,0.,1.));
#1433=DIRECTION('',(-1.,0.,0.));
#1434=DIRECTION('',(0.,0.,1.));
#1435=DIRECTION('',(-1.,0.,0.));
#1436=DIRECTION('',(0.,0.,1.));
#1437=DIRECTION('',(0.,-1.,0.));
#1438=DIRECTION('',(0.,0.,-1.));
#1439=DIRECTION('',(-0.0416305447121808,1.44434966459844E-16,-0.999133073092352));
#1440=DIRECTION('',(-0.999133073092352,0.,0.0416305447121808));
#1441=DIRECTION('',(-0.0416305447121814,0.,-0.999133073092352));
#1442=DIRECTION('',(-0.999133073092352,0.,0.0416305447121814));
#1443=DIRECTION('',(0.0416305447121814,0.,0.999133073092352));
#1444=DIRECTION('',(0.999133073092352,0.,-0.0416305447121814));
#1445=DIRECTION('',(0.0416305447121808,0.,0.999133073092352));
#1446=DIRECTION('',(0.999133073092352,0.,-0.0416305447121808));
#1447=DIRECTION('',(0.,-1.,0.));
#1448=DIRECTION('',(0.,0.,-1.));
#1449=DIRECTION('',(1.,0.,0.));
#1450=DIRECTION('',(0.,0.,-1.));
#1451=DIRECTION('',(1.,0.,0.));
#1452=DIRECTION('',(0.,0.,-1.));
#1453=DIRECTION('',(1.,0.,0.));
#1454=DIRECTION('',(0.,0.,-1.));
#1455=DIRECTION('',(0.,-1.,0.));
#1456=DIRECTION('',(0.,0.,-1.));
#1457=DIRECTION('',(0.0416305447121808,-1.44434966459845E-16,-0.999133073092352));
#1458=DIRECTION('',(-0.999133073092352,0.,-0.0416305447121808));
#1459=DIRECTION('',(0.0416305447121814,0.,-0.999133073092352));
#1460=DIRECTION('',(-0.999133073092352,0.,-0.0416305447121814));
#1461=CARTESIAN_POINT('',(0.,0.,0.));
#1462=CARTESIAN_POINT('',(12.126735358244,-5.,9.));
#1463=CARTESIAN_POINT('',(11.5,-4.5,9.));
#1464=CARTESIAN_POINT('',(-11.3758119965738,-4.5,9.));
#1465=CARTESIAN_POINT('',(11.3758119965738,-4.5,9.));
#1466=CARTESIAN_POINT('',(11.3758119965738,-5.,9.));
#1467=CARTESIAN_POINT('',(11.3758119965738,4.5,9.));
#1468=CARTESIAN_POINT('',(12.126735358244,4.5,9.));
#1469=CARTESIAN_POINT('',(-11.3758119965738,4.5,9.));
#1470=CARTESIAN_POINT('',(-11.3758119965738,-5.,9.));
#1471=CARTESIAN_POINT('',(15.,0.,42.2018956920184));
#1472=CARTESIAN_POINT('',(15.,0.,0.));
#1473=CARTESIAN_POINT('',(13.4,0.,0.));
#1474=CARTESIAN_POINT('',(15.,0.,2.5));
#1475=CARTESIAN_POINT('',(16.6,0.,2.5));
#1476=CARTESIAN_POINT('',(-15.,0.,42.2018956920184));
#1477=CARTESIAN_POINT('',(-15.,0.,0.));
#1478=CARTESIAN_POINT('',(-13.4,0.,0.));
#1479=CARTESIAN_POINT('',(-15.,0.,2.5));
#1480=CARTESIAN_POINT('',(-13.4,0.,2.5));
#1481=CARTESIAN_POINT('',(-20.,-5.,7.));
#1482=CARTESIAN_POINT('',(-20.,-5.,0.));
#1483=CARTESIAN_POINT('',(-20.,-4.5,0.));
#1484=CARTESIAN_POINT('',(-20.,4.5,0.));
#1485=CARTESIAN_POINT('',(-20.,-4.5,4.5));
#1486=CARTESIAN_POINT('',(-20.,-4.5,4.19895929230378));
#1487=CARTESIAN_POINT('',(-20.,-5.,4.19895929230378));
#1488=CARTESIAN_POINT('',(-20.,4.5,4.19895929230378));
#1489=CARTESIAN_POINT('',(-20.,4.5,7.));
#1490=CARTESIAN_POINT('',(-20.,-5.,0.));
#1491=CARTESIAN_POINT('',(-20.,5.,0.));
#1492=CARTESIAN_POINT('',(-19.5,5.,0.));
#1493=CARTESIAN_POINT('',(-11.000433839561,5.,0.));
#1494=CARTESIAN_POINT('',(-11.000433839561,4.5,0.));
#1495=CARTESIAN_POINT('',(-10.5,4.5,0.));
#1496=CARTESIAN_POINT('',(-10.5,-5.,0.));
#1497=CARTESIAN_POINT('',(-10.5,-4.5,0.));
#1498=CARTESIAN_POINT('',(-11.000433839561,-4.5,0.));
#1499=CARTESIAN_POINT('',(-11.000433839561,-5.,0.));
#1500=CARTESIAN_POINT('',(-20.,-5.,0.));
#1501=CARTESIAN_POINT('',(-19.5,-5.,0.));
#1502=CARTESIAN_POINT('',(-19.5,-4.5,0.));
#1503=CARTESIAN_POINT('',(-19.5,4.5,0.));
#1504=CARTESIAN_POINT('',(-10.5,-5.,0.));
#1505=CARTESIAN_POINT('',(-10.5,4.5,0.));
#1506=CARTESIAN_POINT('',(-10.2699660303185,4.5,5.52081527235609));
#1507=CARTESIAN_POINT('',(-10.2699660303185,-5.,5.52081527235609));
#1508=CARTESIAN_POINT('',(-10.2699660303185,-4.5,5.52081527235609));
#1509=CARTESIAN_POINT('',(-10.5,-4.5,-1.6940658945086E-17));
#1510=CARTESIAN_POINT('',(-10.25,-5.,6.));
#1511=CARTESIAN_POINT('',(-9.77039949377232,5.,6.));
#1512=CARTESIAN_POINT('',(-9.77039949377232,-4.5,6.));
#1513=CARTESIAN_POINT('',(-9.77039949377232,4.5,6.));
#1514=CARTESIAN_POINT('',(-10.25,4.5,6.));
#1515=CARTESIAN_POINT('',(9.77039949377232,4.5,6.));
#1516=CARTESIAN_POINT('',(9.77039949377232,-5.,6.));
#1517=CARTESIAN_POINT('',(9.77039949377232,-4.5,6.));
#1518=CARTESIAN_POINT('',(-9.77039949377232,-4.5,6.));
#1519=CARTESIAN_POINT('',(10.25,-5.,6.));
#1520=CARTESIAN_POINT('',(10.2699660303185,5.,5.52081527235609));
#1521=CARTESIAN_POINT('',(10.2699660303185,-4.5,5.52081527235609));
#1522=CARTESIAN_POINT('',(10.2699660303185,4.5,5.52081527235609));
#1523=CARTESIAN_POINT('',(10.25,4.5,6.));
#1524=CARTESIAN_POINT('',(10.5,4.5,0.));
#1525=CARTESIAN_POINT('',(10.5,-5.,0.));
#1526=CARTESIAN_POINT('',(10.5,-4.5,0.));
#1527=CARTESIAN_POINT('',(10.2699660303185,-4.5,5.52081527235609));
#1528=CARTESIAN_POINT('',(10.5,-5.,0.));
#1529=CARTESIAN_POINT('',(11.000433839561,4.5,0.));
#1530=CARTESIAN_POINT('',(11.000433839561,5.,0.));
#1531=CARTESIAN_POINT('',(10.5,5.,0.));
#1532=CARTESIAN_POINT('',(19.5,5.,0.));
#1533=CARTESIAN_POINT('',(19.5,4.5,0.));
#1534=CARTESIAN_POINT('',(20.,4.5,0.));
#1535=CARTESIAN_POINT('',(20.,-5.,0.));
#1536=CARTESIAN_POINT('',(20.,-4.5,0.));
#1537=CARTESIAN_POINT('',(19.5,-4.5,0.));
#1538=CARTESIAN_POINT('',(19.5,-5.,0.));
#1539=CARTESIAN_POINT('',(10.5,-5.,0.));
#1540=CARTESIAN_POINT('',(11.000433839561,-5.,0.));
#1541=CARTESIAN_POINT('',(11.000433839561,-4.5,0.));
#1542=CARTESIAN_POINT('',(20.,-5.,0.));
#1543=CARTESIAN_POINT('',(20.,-5.,4.19895929230378));
#1544=CARTESIAN_POINT('',(20.,4.5,4.19895929230378));
#1545=CARTESIAN_POINT('',(20.,-4.5,4.19895929230378));
#1546=CARTESIAN_POINT('',(20.,-4.5,0.));
#1547=CARTESIAN_POINT('',(20.,4.5,0.));
#1548=CARTESIAN_POINT('',(0.,-5.,0.));
#1549=CARTESIAN_POINT('',(-10.7695325668647,-5.,5.54163054471218));
#1550=CARTESIAN_POINT('',(-10.7695325668647,-5.,5.54163054471218));
#1551=CARTESIAN_POINT('',(-9.77039949377232,-5.,5.5));
#1552=CARTESIAN_POINT('',(-9.77039949377232,-5.,6.5));
#1553=CARTESIAN_POINT('',(9.77039949377232,-5.,6.5));
#1554=CARTESIAN_POINT('',(9.77039949377232,-5.,6.5));
#1555=CARTESIAN_POINT('',(9.77039949377232,-5.,5.5));
#1556=CARTESIAN_POINT('',(10.7695325668647,-5.,5.54163054471218));
#1557=CARTESIAN_POINT('',(10.9995665365462,-5.,0.0208152723560906));
#1558=CARTESIAN_POINT('',(19.5,-5.,4.5));
#1559=CARTESIAN_POINT('',(19.5,-5.,4.19895929230378));
#1560=CARTESIAN_POINT('',(11.2660561397905,-5.,8.55810604182647));
#1561=CARTESIAN_POINT('',(11.3758119965738,-5.,8.5));
#1562=CARTESIAN_POINT('',(-11.5,-5.,8.5));
#1563=CARTESIAN_POINT('',(-11.3758119965738,-5.,8.5));
#1564=CARTESIAN_POINT('',(-19.7660561397905,-5.,4.05810604182647));
#1565=CARTESIAN_POINT('',(-19.5,-5.,4.19895929230378));
#1566=CARTESIAN_POINT('',(-19.5,-5.,0.));
#1567=CARTESIAN_POINT('',(0.,5.,0.));
#1568=CARTESIAN_POINT('',(10.9813689628893,5.,0.457557040120389));
#1569=CARTESIAN_POINT('',(10.7695325668647,5.,5.54163054471218));
#1570=CARTESIAN_POINT('',(9.77039949377232,5.,5.5));
#1571=CARTESIAN_POINT('',(9.77039949377232,5.,6.5));
#1572=CARTESIAN_POINT('',(0.,5.,6.5));
#1573=CARTESIAN_POINT('',(-9.77039949377232,5.,6.5));
#1574=CARTESIAN_POINT('',(-9.77039949377232,5.,5.5));
#1575=CARTESIAN_POINT('',(-10.7695325668647,5.,5.54163054471218));
#1576=CARTESIAN_POINT('',(-10.9813689628893,5.,0.457557040120389));
#1577=CARTESIAN_POINT('',(-19.5,5.,0.));
#1578=CARTESIAN_POINT('',(-19.5,5.,4.19895929230378));
#1579=CARTESIAN_POINT('',(-6.00524532897967,5.,11.3432411769616));
#1580=CARTESIAN_POINT('',(-11.3758119965738,5.,8.5));
#1581=CARTESIAN_POINT('',(0.,5.,8.5));
#1582=CARTESIAN_POINT('',(11.3758119965738,5.,8.5));
#1583=CARTESIAN_POINT('',(6.00524532897967,5.,11.3432411769616));
#1584=CARTESIAN_POINT('',(19.5,5.,4.19895929230378));
#1585=CARTESIAN_POINT('',(19.5,5.,0.));
#1586=CARTESIAN_POINT('',(-2.7835988009631E-16,0.,2.5));
#1587=CARTESIAN_POINT('',(-13.4122867597285,2.75,2.5));
#1588=CARTESIAN_POINT('',(-13.4122867597285,2.75,2.5));
#1589=CARTESIAN_POINT('',(-16.5877132402715,2.75,2.5));
#1590=CARTESIAN_POINT('',(-16.5877132402715,2.75,2.5));
#1591=CARTESIAN_POINT('',(-18.1754264805429,1.34441069388203E-14,2.5));
#1592=CARTESIAN_POINT('',(-18.1754264805429,1.34441069388203E-14,2.5));
#1593=CARTESIAN_POINT('',(-16.5877132402715,-2.74999999999999,2.5));
#1594=CARTESIAN_POINT('',(-16.5877132402715,-2.74999999999999,2.5));
#1595=CARTESIAN_POINT('',(-13.4122867597285,-2.74999999999999,2.5));
#1596=CARTESIAN_POINT('',(-13.4122867597285,-2.74999999999999,2.5));
#1597=CARTESIAN_POINT('',(-11.8245735194571,4.33680868994202E-15,2.5));
#1598=CARTESIAN_POINT('',(-11.8245735194571,4.33680868994202E-15,2.5));
#1599=CARTESIAN_POINT('',(-13.4122867597285,2.75,2.5));
#1600=CARTESIAN_POINT('',(-13.4122867597285,2.75,2.5));
#1601=CARTESIAN_POINT('',(-13.4122867597285,2.75000000000001,7.98761289190842));
#1602=CARTESIAN_POINT('',(-15.6814888474636,2.75,6.7862706101663));
#1603=CARTESIAN_POINT('',(-16.5877132402715,2.75,6.30650475515039));
#1604=CARTESIAN_POINT('',(-16.5877132402715,2.75,2.5));
#1605=CARTESIAN_POINT('',(-16.5877132402715,2.75,2.5));
#1606=CARTESIAN_POINT('',(-17.0585258736894,1.93452859807481,6.05725100804677));
#1607=CARTESIAN_POINT('',(-18.1754264805429,1.73472347597681E-14,5.46595068677138));
#1608=CARTESIAN_POINT('',(-18.1754264805429,1.34441069388203E-14,2.5));
#1609=CARTESIAN_POINT('',(-18.1754264805429,1.34441069388203E-14,2.5));
#1610=CARTESIAN_POINT('',(-18.5422740594241,0.635398645255849,5.27173726265781));
#1611=CARTESIAN_POINT('',(-16.5877132402715,-2.74999999999999,6.30650475515039));
#1612=CARTESIAN_POINT('',(-16.5877132402715,-2.74999999999999,2.5));
#1613=CARTESIAN_POINT('',(-16.5877132402715,-2.74999999999999,2.5));
#1614=CARTESIAN_POINT('',(-18.1617543957796,-2.74999999999999,5.47318884929314));
#1615=CARTESIAN_POINT('',(-13.4122867597285,-2.74999999999999,7.98761289190842));
#1616=CARTESIAN_POINT('',(-13.4122867597285,-2.74999999999999,2.5));
#1617=CARTESIAN_POINT('',(-13.4122867597285,-2.74999999999999,2.5));
#1618=CARTESIAN_POINT('',(-14.09102950222,-3.92561691526391,7.62827849882468));
#1619=CARTESIAN_POINT('',(-11.8245735194571,4.33680868994202E-15,8.82816696028743));
#1620=CARTESIAN_POINT('',(-11.8245735194571,4.33680868994202E-15,2.5));
#1621=CARTESIAN_POINT('',(-11.8245735194571,4.33680868994202E-15,2.5));
#1622=CARTESIAN_POINT('',(-12.6072813164853,1.35568967193328,8.41379224421364));
#1623=CARTESIAN_POINT('',(-20.,37.2018956920184,4.5));
#1624=CARTESIAN_POINT('',(-20.,4.5,4.5));
#1625=CARTESIAN_POINT('',(-11.6097558567833,4.5,8.94189395817353));
#1626=CARTESIAN_POINT('',(-19.7339438602095,4.5,4.64085325047731));
#1627=CARTESIAN_POINT('',(-19.7339438602095,37.2018956920184,4.64085325047731));
#1628=CARTESIAN_POINT('',(-19.7339438602095,-4.5,4.64085325047731));
#1629=CARTESIAN_POINT('',(-11.5,-4.5,8.99999999999999));
#1630=CARTESIAN_POINT('',(-11.6097558567833,-4.5,8.94189395817353));
#1631=CARTESIAN_POINT('',(-11.6097558567833,37.2018956920184,8.94189395817353));
#1632=CARTESIAN_POINT('',(2.7835988009631E-16,0.,2.5));
#1633=CARTESIAN_POINT('',(18.1754264805429,1.34441069388203E-14,2.5));
#1634=CARTESIAN_POINT('',(18.1754264805429,1.34441069388203E-14,2.5));
#1635=CARTESIAN_POINT('',(16.5877132402715,2.75,2.5));
#1636=CARTESIAN_POINT('',(16.5877132402715,2.75,2.5));
#1637=CARTESIAN_POINT('',(13.4122867597285,2.75,2.5));
#1638=CARTESIAN_POINT('',(13.4122867597285,2.75,2.5));
#1639=CARTESIAN_POINT('',(11.8245735194571,4.33680868994202E-15,2.5));
#1640=CARTESIAN_POINT('',(11.8245735194571,4.33680868994202E-15,2.5));
#1641=CARTESIAN_POINT('',(13.4122867597285,-2.74999999999999,2.5));
#1642=CARTESIAN_POINT('',(13.4122867597285,-2.74999999999999,2.5));
#1643=CARTESIAN_POINT('',(16.5877132402715,-2.74999999999999,2.5));
#1644=CARTESIAN_POINT('',(16.5877132402715,-2.74999999999999,2.5));
#1645=CARTESIAN_POINT('',(18.1754264805429,1.34441069388203E-14,2.5));
#1646=CARTESIAN_POINT('',(18.1754264805429,1.34441069388203E-14,2.5));
#1647=CARTESIAN_POINT('',(18.1754264805429,1.32272665043232E-14,5.46595068677138));
#1648=CARTESIAN_POINT('',(18.5422740594241,-0.635398645255824,5.27173726265781));
#1649=CARTESIAN_POINT('',(16.5877132402715,2.75,6.30650475515039));
#1650=CARTESIAN_POINT('',(16.5877132402715,2.75,2.5));
#1651=CARTESIAN_POINT('',(16.5877132402715,2.75,2.5));
#1652=CARTESIAN_POINT('',(18.1617543957796,2.75,5.47318884929314));
#1653=CARTESIAN_POINT('',(13.4122867597285,2.75,7.98761289190842));
#1654=CARTESIAN_POINT('',(13.4122867597285,2.75,2.5));
#1655=CARTESIAN_POINT('',(13.4122867597285,2.75,2.5));
#1656=CARTESIAN_POINT('',(14.09102950222,3.92561691526392,7.62827849882468));
#1657=CARTESIAN_POINT('',(11.8245735194571,4.33680868994202E-15,8.82816696028743));
#1658=CARTESIAN_POINT('',(11.8245735194571,4.33680868994202E-15,2.5));
#1659=CARTESIAN_POINT('',(11.8245735194571,4.33680868994202E-15,2.5));
#1660=CARTESIAN_POINT('',(12.6072813164853,-1.35568967193328,8.41379224421364));
#1661=CARTESIAN_POINT('',(13.4122867597285,-2.74999999999999,7.98761289190842));
#1662=CARTESIAN_POINT('',(13.4122867597285,-2.74999999999999,2.5));
#1663=CARTESIAN_POINT('',(13.4122867597285,-2.74999999999999,2.5));
#1664=CARTESIAN_POINT('',(15.6814888474636,-2.74999999999999,6.7862706101663));
#1665=CARTESIAN_POINT('',(16.5877132402715,-2.74999999999999,6.30650475515039));
#1666=CARTESIAN_POINT('',(16.5877132402715,-2.74999999999999,2.5));
#1667=CARTESIAN_POINT('',(16.5877132402715,-2.74999999999999,2.5));
#1668=CARTESIAN_POINT('',(17.0585258736894,-1.93452859807479,6.05725100804677));
#1669=CARTESIAN_POINT('',(11.5,37.2018956920184,9.));
#1670=CARTESIAN_POINT('',(20.,-4.5,4.5));
#1671=CARTESIAN_POINT('',(11.6097558567833,-4.5,8.94189395817353));
#1672=CARTESIAN_POINT('',(19.7339438602095,-4.5,4.64085325047731));
#1673=CARTESIAN_POINT('',(19.7339438602095,37.2018956920184,4.64085325047731));
#1674=CARTESIAN_POINT('',(19.7339438602095,4.5,4.64085325047731));
#1675=CARTESIAN_POINT('',(11.5,4.5,9.));
#1676=CARTESIAN_POINT('',(11.6097558567833,4.5,8.94189395817353));
#1677=CARTESIAN_POINT('',(11.6097558567833,37.2018956920184,8.94189395817353));
#1678=CARTESIAN_POINT('',(-9.77039949377232,-5.,5.5));
#1679=CARTESIAN_POINT('',(-9.77039949377232,4.5,5.5));
#1680=CARTESIAN_POINT('',(-9.77039949377232,-4.5,5.5));
#1681=CARTESIAN_POINT('',(9.77039949377232,-5.,5.5));
#1682=CARTESIAN_POINT('',(9.77039949377232,4.5,5.5));
#1683=CARTESIAN_POINT('',(9.77039949377232,-4.5,5.5));
#1684=CARTESIAN_POINT('',(-19.5,4.5,7.));
#1685=CARTESIAN_POINT('',(-19.5,4.5,4.19895929230378));
#1686=CARTESIAN_POINT('',(-19.5,4.5,4.19895929230378));
#1687=CARTESIAN_POINT('',(-19.5,4.5,4.19895929230378));
#1688=CARTESIAN_POINT('',(-19.5,4.5,4.19895929230378));
#1689=CARTESIAN_POINT('',(-19.5,-4.5,0.));
#1690=CARTESIAN_POINT('',(-19.5,-4.5,4.19895929230378));
#1691=CARTESIAN_POINT('',(-19.5,37.2018956920184,4.19895929230378));
#1692=CARTESIAN_POINT('',(-19.5,-4.5,4.19895929230378));
#1693=CARTESIAN_POINT('',(-6.00524532897967,4.5,11.3432411769616));
#1694=CARTESIAN_POINT('',(-11.3758119965738,4.5,8.5));
#1695=CARTESIAN_POINT('',(-19.5,-4.5,4.19895929230378));
#1696=CARTESIAN_POINT('',(-19.5,-4.5,4.19895929230378));
#1697=CARTESIAN_POINT('',(-11.3758119965738,4.5,8.5));
#1698=CARTESIAN_POINT('',(-11.3758119965738,4.5,8.5));
#1699=CARTESIAN_POINT('',(-11.3758119965738,4.5,8.5));
#1700=CARTESIAN_POINT('',(-19.7660561397905,-4.5,4.05810604182647));
#1701=CARTESIAN_POINT('',(-11.3758119965738,-4.5,8.5));
#1702=CARTESIAN_POINT('',(-11.3758119965738,-5.,8.5));
#1703=CARTESIAN_POINT('',(-11.3758119965738,-4.5,8.5));
#1704=CARTESIAN_POINT('',(12.126735358244,4.5,8.5));
#1705=CARTESIAN_POINT('',(11.3758119965738,4.5,8.5));
#1706=CARTESIAN_POINT('',(-11.3758119965738,-4.5,8.5));
#1707=CARTESIAN_POINT('',(-11.3758119965738,-4.5,8.5));
#1708=CARTESIAN_POINT('',(11.3758119965738,4.5,8.5));
#1709=CARTESIAN_POINT('',(11.3758119965738,4.5,8.5));
#1710=CARTESIAN_POINT('',(11.3758119965738,4.5,8.5));
#1711=CARTESIAN_POINT('',(0.,-4.5,8.5));
#1712=CARTESIAN_POINT('',(11.3758119965738,-4.5,8.5));
#1713=CARTESIAN_POINT('',(11.3758119965738,37.2018956920184,8.5));
#1714=CARTESIAN_POINT('',(11.3758119965738,-4.5,8.5));
#1715=CARTESIAN_POINT('',(6.00524532897967,4.5,11.3432411769616));
#1716=CARTESIAN_POINT('',(19.5,4.5,4.19895929230378));
#1717=CARTESIAN_POINT('',(19.5,4.5,0.));
#1718=CARTESIAN_POINT('',(19.5,4.5,4.19895929230378));
#1719=CARTESIAN_POINT('',(11.3758119965738,-4.5,8.5));
#1720=CARTESIAN_POINT('',(11.3758119965738,-4.5,8.5));
#1721=CARTESIAN_POINT('',(19.5,4.5,4.19895929230378));
#1722=CARTESIAN_POINT('',(19.5,4.5,4.19895929230378));
#1723=CARTESIAN_POINT('',(11.2660561397905,-4.5,8.55810604182647));
#1724=CARTESIAN_POINT('',(19.5,-4.5,4.19895929230378));
#1725=CARTESIAN_POINT('',(19.5,-5.,4.19895929230378));
#1726=CARTESIAN_POINT('',(19.5,-4.5,4.19895929230378));
#1727=CARTESIAN_POINT('',(19.5,-4.5,4.19895929230378));
#1728=CARTESIAN_POINT('',(19.5,-4.5,4.19895929230378));
#1729=CARTESIAN_POINT('',(19.5,-4.5,0.));
#1730=CARTESIAN_POINT('',(10.9813689628893,-4.5,0.457557040120389));
#1731=CARTESIAN_POINT('',(10.7695325668647,-4.5,5.54163054471218));
#1732=CARTESIAN_POINT('',(9.77039949377232,-4.5,5.5));
#1733=CARTESIAN_POINT('',(9.77039949377232,-4.5,6.5));
#1734=CARTESIAN_POINT('',(0.,-4.5,6.5));
#1735=CARTESIAN_POINT('',(-9.77039949377232,-4.5,6.5));
#1736=CARTESIAN_POINT('',(-9.77039949377232,-4.5,5.5));
#1737=CARTESIAN_POINT('',(-10.7695325668647,-4.5,5.54163054471218));
#1738=CARTESIAN_POINT('',(-10.9813689628893,-4.5,0.457557040120389));
#1739=CARTESIAN_POINT('',(-10.9995665365462,4.5,0.0208152723560907));
#1740=CARTESIAN_POINT('',(-10.7695325668647,4.5,5.54163054471218));
#1741=CARTESIAN_POINT('',(-9.77039949377232,4.5,5.5));
#1742=CARTESIAN_POINT('',(-9.77039949377232,4.5,6.5));
#1743=CARTESIAN_POINT('',(-10.25,4.5,6.5));
#1744=CARTESIAN_POINT('',(9.77039949377232,4.5,6.5));
#1745=CARTESIAN_POINT('',(9.77039949377232,4.5,5.5));
#1746=CARTESIAN_POINT('',(10.7695325668647,4.5,5.54163054471218));
#1747=CARTESIAN_POINT('',(10.7495665365462,4.5,6.02081527235609));
#1748=MECHANICAL_DESIGN_GEOMETRIC_PRESENTATION_REPRESENTATION('',(#1017),
#1749);
#1749=(
GEOMETRIC_REPRESENTATION_CONTEXT(3)
GLOBAL_UNCERTAINTY_ASSIGNED_CONTEXT((#1750))
GLOBAL_UNIT_ASSIGNED_CONTEXT((#1753,#1752,#1751))
REPRESENTATION_CONTEXT('SEG-P-014-00','TOP_LEVEL_ASSEMBLY_PART')
);
#1750=UNCERTAINTY_MEASURE_WITH_UNIT(LENGTH_MEASURE(1.E-5),#1753,
'DISTANCE_ACCURACY_VALUE','Maximum Tolerance applied to model');
#1751=(
NAMED_UNIT(*)
SI_UNIT($,.STERADIAN.)
SOLID_ANGLE_UNIT()
);
#1752=(
NAMED_UNIT(*)
PLANE_ANGLE_UNIT()
SI_UNIT($,.RADIAN.)
);
#1753=(
LENGTH_UNIT()
NAMED_UNIT(*)
SI_UNIT(.MILLI.,.METRE.)
);
#1754=PRODUCT_DEFINITION_SHAPE('','',#1755);
#1755=PRODUCT_DEFINITION('','',#1757,#1756);
#1756=PRODUCT_DEFINITION_CONTEXT('',#1763,'design');
#1757=PRODUCT_DEFINITION_FORMATION_WITH_SPECIFIED_SOURCE('','',#1759,
 .NOT_KNOWN.);
#1758=PRODUCT_RELATED_PRODUCT_CATEGORY('','',(#1759));
#1759=PRODUCT('SEG-P-014-00','SEG-P-014-00','SEG-P-014-00',(#1761));
#1760=PRODUCT_CATEGORY('','');
#1761=PRODUCT_CONTEXT('',#1763,'mechanical');
#1762=APPLICATION_PROTOCOL_DEFINITION('international standard',
'automotive_design',2010,#1763);
#1763=APPLICATION_CONTEXT(
'core data for automotive mechanical design processes');
ENDSEC;
END-ISO-10303-21;
